<svg width="620" height="132" viewBox="0 0 620 132" fill="none" xmlns="http://www.w3.org/2000/svg">
<path fill-rule="evenodd" clip-rule="evenodd" d="M71.8222 31.1238L44.8827 111.464H26.8527L0 31.1238H17.9928L35.8615 85.7444L53.7426 31.1238H71.8222ZM98.4516 21.3836H80.5084V1.05559H98.4516V21.3836ZM98.4516 111.464H80.5084V30.971H98.4516V111.464ZM241.86 111.575H224.86C224.314 109.06 223.768 106.976 223.16 103.891C218.916 109.06 212.166 111.63 202.897 111.63C196.494 111.63 191.195 109.991 187.063 106.712C182.211 102.877 179.791 97.3048 179.791 89.9823C179.791 79.5057 183.464 72.2804 190.86 68.3482C194.248 66.5141 201.159 64.8745 211.608 63.4434C218.978 62.3735 222.689 60.1781 222.689 56.8013C222.689 53.8139 221.559 51.4379 219.351 49.6594C217.13 47.8809 214.548 46.9777 211.583 46.9777C208.53 46.9777 205.937 47.8947 203.765 49.7427C201.321 51.7297 199.931 54.5781 199.596 58.2324H182.137C182.546 52.0076 183.874 46.9499 186.07 43.1289C188.291 39.2939 191.865 36.3204 196.804 34.2084C201.395 32.2771 206.57 31.3183 212.389 31.3183C232.033 31.5129 241.86 41.9478 241.86 62.6375V111.575ZM222.416 72.5444C220.604 74.184 217.427 75.4901 212.861 76.4488C207.674 77.5326 204.324 78.547 202.773 79.5057C199.596 81.3259 197.983 84.5078 197.983 89.0236C197.983 94.8177 200.713 97.6939 206.135 97.6939C208.629 97.6939 211.211 97.0686 213.903 95.7486C216.559 94.4425 218.581 92.8863 219.959 91.0522C221.77 88.5512 222.689 84.8413 222.689 79.9364C222.689 79.0472 222.627 77.8105 222.54 76.1571C222.465 74.5314 222.416 73.3086 222.416 72.5444ZM322.952 72.2526C322.952 83.0211 320.594 91.9693 315.854 99.0417C310.382 107.17 302.552 111.269 292.401 111.38H292.265C283.157 111.38 275.96 107.434 269.321 99.5002V131.764H251.204V31.4573H269.098C269.098 31.4573 268.998 43.1427 269.098 43.2539C269.098 43.2539 278.441 31.5406 290.863 31.5406C297.055 31.5406 302.837 33.4303 308.148 37.1958C313.484 41.003 317.281 45.7827 319.552 51.6046C321.823 57.3987 322.952 64.291 322.952 72.2526ZM302.887 72.2526C302.887 56.8291 297.253 49.0758 286.036 49.0758C275.079 49.0758 269.594 57.1903 269.594 73.3642C269.594 80.1448 271.331 85.5499 274.756 89.6072C277.92 93.2893 281.705 95.1095 286.185 95.1095C290.714 95.1095 294.523 93.2198 297.563 89.4682C301.125 85.2303 302.887 79.4918 302.887 72.2526ZM394.712 111.658H376.285V62.2345C376.285 56.9263 375.516 53.1747 374.002 50.9655C372.178 48.395 368.976 47.1305 364.397 47.1305C359.918 47.1305 356.419 48.784 353.974 52.1049C351.517 55.4396 350.276 59.6223 350.276 64.6522V111.658H331.874V1.00001H350.276V42.3369C351.678 39.0021 354.259 36.3065 358.056 34.3196C361.878 32.2771 366.085 31.2766 370.676 31.2766C377.253 31.2766 382.75 33.1802 387.168 36.9735C392.193 41.3225 394.712 47.5613 394.712 55.6063V111.658ZM547.415 111.658H529V62.2345C529 56.9263 528.231 53.1747 526.705 50.9655C524.881 48.395 521.692 47.1305 517.1 47.1305C512.621 47.1305 509.134 48.784 506.677 52.1049C504.232 55.4396 502.991 59.6223 502.991 64.6522V111.658H484.589V31.1377H502.991V42.3369C504.381 39.0021 506.975 36.3065 510.784 34.3196C514.594 32.2771 518.788 31.2766 523.392 31.2766C529.968 31.2766 535.453 33.1802 539.883 36.9735C544.908 41.3225 547.415 47.5613 547.415 55.6063V111.658ZM170.261 111.658H151.847V62.2345C151.847 56.9263 151.077 53.1747 149.551 50.9655C147.727 48.395 144.526 47.1305 139.947 47.1305C135.467 47.1305 131.968 48.784 129.523 52.1049C127.079 55.4396 125.825 59.6223 125.825 64.6522V111.658H107.423V31.1377H125.825V42.3369C127.228 39.0021 129.821 36.3065 133.618 34.3196C137.44 32.2771 141.634 31.2766 146.238 31.2766C152.802 31.2766 158.299 33.1802 162.717 36.9735C167.755 41.3225 170.261 47.5613 170.261 55.6063V111.658ZM619.647 76.5739H573.622C574.032 82.8404 575.806 87.6758 578.909 91.1078C581.577 93.9423 584.828 95.3457 588.662 95.3457C591.491 95.3457 594.06 94.6093 596.306 93.0808C598.564 91.5524 600.041 89.5099 600.711 86.9255H618.741C616.756 94.6926 613.157 100.681 607.958 104.933C602.796 109.171 596.641 111.311 589.518 111.311C567.207 111.311 556.064 97.4438 556.064 69.6821C556.064 57.9823 558.893 48.6173 564.514 41.5865C570.173 34.5836 578.077 31.0682 588.29 31.0682C609.186 31.0682 619.647 46.2691 619.647 76.5739ZM601.592 63.8463C601.145 58.7192 599.631 54.6615 597.001 51.688C594.37 48.7562 591.33 47.2556 587.905 47.2556C584.567 47.2556 581.676 48.659 579.269 51.4101C576.576 54.3558 574.913 58.5246 574.243 63.8463H601.592Z" fill="#00A1E4"/>
<path fill-rule="evenodd" clip-rule="evenodd" d="M475.407 71.3078C475.407 83.5491 472.218 93.3448 465.815 100.709C459.412 108.087 450.75 111.755 439.806 111.755C428.687 111.755 419.89 108.032 413.474 100.556C407.022 93.1086 403.82 83.3545 403.82 71.3078C403.82 59.2055 406.997 49.3959 413.387 41.9345C419.778 34.4591 428.588 30.7353 439.806 30.7353C451.023 30.7353 459.809 34.5425 466.212 42.1429C472.342 49.5627 475.407 59.2749 475.407 71.3078ZM456.607 71.2522C456.607 55.5513 450.998 47.7425 439.769 47.7425C428.464 47.7425 422.793 55.5513 422.793 71.2522C422.793 86.9255 428.464 94.776 439.769 94.776C450.998 94.776 456.607 86.9255 456.607 71.2522Z" fill="#00A1E4"/>
</svg>
