<svg xmlns="http://www.w3.org/2000/svg" width="80" height="32" viewBox="0 0 80 32">
    <g fill="none" fill-rule="evenodd">
        <g>
            <g>
                <g>
                    <g>
                        <g>
                            <path fill="#D8232A" d="M64.09 5.75c-.092-.394-.258-.725-.507-1.012l-.002-.002c-.34-.381-.774-.635-1.326-.774-.51-.135-1.262-.201-2.296-.201-1.128 0-1.853.132-2.369.328-.23.083-.479.262-.663.435v-.378h-1.46v7.634h1.466V6.931c0-1.266 1.295-1.766 2.584-1.766h.647c1.29 0 2.596.5 2.596 1.766v4.849h1.446V7.616c0-.945-.036-1.52-.117-1.866zM39.429 3.739h1.458c.017-.782.043-1.527.128-1.866.068-.338.22-.626.44-.847.255-.304.61-.525 1.068-.677.441-.119 1.19-.22 2.174-.237l1.37-.002-1.319 1.286-.557.002c-1.94 0-1.804 1.24-1.804 2.34h3.41l-1.379 1.404h-2.065l.008 6.626h-1.474V5.142h-1.458V3.739zM37.97 2.724L39.43 2.724 39.43 1.228 37.97 1.228z" transform="translate(-451 -456) translate(435 280) translate(0 160) translate(16 16) translate(2.667 10.667)"/>
                            <path fill="#005698" d="M24.86 6.022c-.136-.33-.371-.543-.735-.67-.377-.12-1.04-.19-2.2-.207-1.159.017-1.822.087-2.2.208-.363.126-.598.34-.734.669-.108.253-.23.868-.23 1.754 0 .887.122 1.502.23 1.755.136.33.371.543.735.67.377.12 1.04.19 2.2.207 1.158-.017 1.822-.087 2.2-.208.363-.126.598-.34.734-.67.108-.252.23-.867.23-1.754 0-.886-.122-1.501-.23-1.754m1.845 1.754c0 .908-.107 1.654-.317 2.212-.212.582-.938 1.893-4.463 1.893-3.524 0-4.25-1.311-4.462-1.893-.21-.558-.316-1.304-.316-2.212 0-.907.106-1.653.316-2.212.212-.581.938-1.893 4.462-1.893 3.525 0 4.25 1.312 4.463 1.893.21.559.317 1.305.317 2.212" transform="translate(-451 -456) translate(435 280) translate(0 160) translate(16 16) translate(2.667 10.667)"/>
                            <path fill="#D8232A" d="M52.552 6.022c-.136-.33-.371-.543-.735-.67-.377-.12-1.04-.19-2.2-.207-1.159.017-1.822.087-2.199.208-.364.126-.6.34-.734.669-.109.253-.23.868-.23 1.754 0 .887.121 1.502.23 1.755.135.33.37.543.734.67.377.12 1.04.19 2.2.207 1.159-.017 1.822-.087 2.2-.208.363-.126.598-.34.734-.67.108-.252.23-.867.23-1.754 0-.886-.122-1.501-.23-1.754m1.845 1.754c0 .908-.107 1.654-.317 2.212-.212.582-.938 1.893-4.462 1.893-3.525 0-4.25-1.311-4.463-1.893-.21-.558-.316-1.304-.316-2.212 0-.907.106-1.653.316-2.212.212-.581.938-1.893 4.463-1.893 3.524 0 4.25 1.312 4.462 1.893.21.559.317 1.305.317 2.212" transform="translate(-451 -456) translate(435 280) translate(0 160) translate(16 16) translate(2.667 10.667)"/>
                            <path fill="#005698" d="M15.978 5.737c-.093-.394-.26-.725-.51-1.012l-.003-.002c-.342-.381-.78-.634-1.336-.774-.515-.135-1.257-.2-2.3-.2-1.137 0-1.909.09-2.43.286l-.002.001c-.43.155-.787.443-1.05.838-.307-.414-.69-.697-1.164-.856-.54-.182-1.542-.27-2.808-.27-.95 0-1.602.067-1.994.206l-.004.001c-.296.112-.579.3-.857.569v-.391H.058v7.634h1.457V6.918c0-1.266 1.287-1.766 2.588-1.766h.652c1.3 0 2.6.5 2.6 1.766v4.849h1.457V6.918c0-1.266 1.272-1.766 2.572-1.766h.652c1.3 0 2.604.5 2.604 1.766v4.849h1.456V7.603c0-.945-.037-1.52-.118-1.866z" transform="translate(-451 -456) translate(435 280) translate(0 160) translate(16 16) translate(2.667 10.667)"/>
                            <path fill="#D8232A" d="M67.714 5.353c.377-.121 1.04-.191 2.2-.208 1.158.017 1.821.087 2.199.208.363.126.599.34.735.669.07.165.147.487.192.938h-6.253c.045-.451.122-.773.192-.938.136-.33.371-.543.735-.67zm6.216 2.981h.746c.01-.179.016-.364.016-.558 0-.907-.106-1.653-.316-2.212-.212-.581-.938-1.893-4.462-1.893-3.525 0-4.25 1.312-4.463 1.893-.21.559-.317 1.305-.317 2.212 0 .908.107 1.654.317 2.212.212.582.938 1.893 4.463 1.893 3.524 0 4.25-1.311 4.462-1.893l.054-.157h-1.76c-.137.165-.319.286-.557.37-.378.12-1.04.19-2.2.207-1.159-.017-1.822-.087-2.2-.208-.363-.126-.598-.34-.734-.67-.083-.194-.174-.604-.212-1.187h7.163v-.009z" transform="translate(-451 -456) translate(435 280) translate(0 160) translate(16 16) translate(2.667 10.667)"/>
                            <path fill="#005698" d="M37.97 11.767L39.43 11.767 39.43 3.738 37.97 3.738zM35.099 9.531c-.136.33-.371.543-.735.67-.378.12-1.04.19-2.2.207-1.159-.017-1.615-.086-1.993-.208-.363-.126-.599-.34-.734-.669-.085-.2-.18-.626-.215-1.234V7.256c.035-.607.13-1.034.215-1.234.135-.33.37-.543.734-.67.378-.12.834-.19 1.993-.207 1.16.017 1.822.087 2.2.208.364.126.599.34.735.67.108.252.23.867.23 1.754s-.122 1.501-.23 1.754m1.528-3.966c-.212-.582-.938-1.893-4.463-1.893-1.349 0-2.286.192-2.942.462V.112h-1.457v11.676h1.457v-.37c.656.27 1.593.463 2.942.463 3.525 0 4.25-1.311 4.463-1.892.21-.559.316-1.305.316-2.212 0-.908-.106-1.654-.316-2.212" transform="translate(-451 -456) translate(435 280) translate(0 160) translate(16 16) translate(2.667 10.667)"/>
                        </g>
                    </g>
                </g>
            </g>
        </g>
    </g>
</svg>
