<svg width="81" height="40" viewBox="0 0 81 40" fill="none" xmlns="http://www.w3.org/2000/svg">
<path fill-rule="evenodd" clip-rule="evenodd" d="M19.1718 5.53505C17.2584 6.63848 16.5986 9.10465 17.7009 11.018L26.0461 25.4719C27.1507 27.3841 29.6158 28.0429 31.5269 26.9394C33.4402 25.836 34.1012 23.3698 32.9956 21.4576L24.6525 7.00372C23.5491 5.09037 21.0807 4.43162 19.1718 5.53505Z" fill="#939598"/>
<path fill-rule="evenodd" clip-rule="evenodd" d="M39.872 5.535C41.7842 6.63844 42.4452 9.10351 41.3418 11.018L32.9965 25.4718C31.8909 27.3841 29.4258 28.0428 27.5135 26.9394C25.6024 25.836 24.9414 23.3698 26.046 21.4575L34.3912 7.00367C35.4947 5.09032 37.9619 4.43157 39.872 5.535Z" fill="#F68B22"/>
<path fill-rule="evenodd" clip-rule="evenodd" d="M49.2062 26.9394C47.2939 25.836 46.633 23.3676 47.7353 21.4575L56.0828 7.00368C57.1851 5.09143 59.6513 4.43157 61.5635 5.5339C63.4758 6.63844 64.1356 9.10461 63.0322 11.0147L54.6869 25.4696C53.5835 27.3841 51.1184 28.0417 49.2062 26.9394Z" fill="#F68B22"/>
<path fill-rule="evenodd" clip-rule="evenodd" d="M38.3402 26.9394C36.4269 25.836 35.7659 23.3676 36.8693 21.4575L45.2157 7.00368C46.3191 5.09143 48.7853 4.43157 50.6965 5.5339C52.6087 6.63844 53.2697 9.10461 52.1662 11.0147L43.821 25.4696C42.7164 27.3841 40.2514 28.0417 38.3402 26.9394Z" fill="#F68B22"/>
<path d="M19.4828 34.894H19.0624L17.1777 30.0014H17.927L19.2709 33.6483L20.6204 30.0014H21.3631L19.4828 34.894Z" fill="#939598"/>
<path d="M22.7248 30.765H22.0649V30.0014H22.7248V30.765ZM22.0649 34.894V31.1975H22.7248V34.894H22.0649Z" fill="#939598"/>
<path d="M24.4607 33.2885C24.517 33.5975 24.656 33.848 24.8789 34.0389C25.1018 34.2309 25.3666 34.3269 25.6723 34.3269C25.8907 34.3269 26.0916 34.2739 26.2714 34.168C26.4524 34.062 26.5958 33.9131 26.7029 33.7211H27.4532C27.2833 34.1316 27.046 34.4471 26.7404 34.6645C26.4336 34.883 26.0783 34.9922 25.6734 34.9922C25.4008 34.9922 25.1492 34.9437 24.9241 34.8466C24.699 34.7495 24.4927 34.6049 24.3084 34.414C24.1374 34.232 24.0017 34.0201 23.9035 33.7796C23.8064 33.5379 23.7578 33.2918 23.7578 33.0414C23.7578 32.781 23.8019 32.5382 23.8902 32.312C23.9785 32.0858 24.1087 31.8794 24.2819 31.693C24.4662 31.491 24.6726 31.3399 24.9032 31.2373C25.1338 31.1346 25.3865 31.085 25.6601 31.085C25.9845 31.085 26.2869 31.16 26.5649 31.3112C26.8441 31.4624 27.0747 31.6742 27.2568 31.9434C27.3638 32.1123 27.4433 32.2954 27.494 32.4974C27.5448 32.6982 27.5713 32.9266 27.5713 33.1837V33.2896H24.4607V33.2885ZM26.843 32.6905C26.7603 32.387 26.6168 32.1509 26.4127 31.9843C26.2085 31.8177 25.9647 31.7349 25.68 31.7349C25.3887 31.7349 25.136 31.821 24.923 31.992C24.709 32.163 24.5611 32.3959 24.4806 32.6916H26.843V32.6905Z" fill="#939598"/>
<path d="M28.8259 34.894V31.8033H28.3018V31.1975H28.8259V30.0014H29.4891V31.1975H30.0121V31.8033H29.4891V34.894H28.8259Z" fill="#939598"/>
<path d="M31.6074 34.894H30.9409V31.1975H31.582V31.6157C31.721 31.4502 31.8733 31.3288 32.0399 31.2516C32.2066 31.1744 32.3974 31.1357 32.6126 31.1357C33.0959 31.1357 33.4678 31.277 33.7271 31.5617C33.9853 31.8475 34.1144 32.2535 34.1144 32.7843V34.8929H33.4468V32.9277C33.4468 32.536 33.374 32.2447 33.2283 32.056C33.0816 31.8662 32.8576 31.7724 32.553 31.7724C32.222 31.7724 31.9804 31.8839 31.8325 32.1068C31.6835 32.3297 31.6085 32.6982 31.6085 33.2113V34.894H31.6074Z" fill="#939598"/>
<path d="M38.3307 34.894V34.4383C38.1608 34.616 37.971 34.7495 37.7602 34.8411C37.5517 34.9315 37.3277 34.9768 37.0894 34.9768C36.5343 34.9768 36.072 34.7925 35.7045 34.4206C35.336 34.0499 35.1528 33.5853 35.1528 33.027C35.1528 32.7677 35.1981 32.5205 35.2908 32.2877C35.3823 32.056 35.5137 31.8485 35.6836 31.6731C35.869 31.4778 36.0742 31.3332 36.2949 31.2406C36.5145 31.1457 36.7672 31.1004 37.0485 31.1004C37.3023 31.1004 37.5351 31.1457 37.7481 31.235C37.96 31.3255 38.1542 31.4601 38.3296 31.6433V31.1986H39.0016V34.8951H38.3307V34.894ZM35.8447 33.0193C35.8447 33.3934 35.9683 33.7078 36.2154 33.9605C36.4637 34.2121 36.766 34.339 37.1247 34.339C37.4524 34.339 37.7404 34.2121 37.9898 33.9583C38.2402 33.7045 38.3649 33.4077 38.3649 33.0667C38.3649 32.7026 38.2413 32.3925 37.9942 32.1343C37.7459 31.875 37.4524 31.747 37.1114 31.747C36.7616 31.747 36.4637 31.8695 36.2154 32.1167C35.9672 32.3638 35.8447 32.664 35.8447 33.0193Z" fill="#939598"/>
<path d="M42.4973 33.0292C42.4973 32.579 42.4344 32.2535 42.3064 32.0494C42.1806 31.8452 41.9776 31.7437 41.7006 31.7437C41.4148 31.7437 41.2041 31.8463 41.0683 32.0516C40.9326 32.2557 40.8642 32.5735 40.8642 33.0038V34.8951H40.2319V31.1986H40.8245V31.6312C40.9481 31.4657 41.0871 31.3421 41.2427 31.2593C41.3972 31.1788 41.5737 31.1379 41.7723 31.1379C42.0416 31.1379 42.2645 31.1898 42.4421 31.2924C42.6209 31.3961 42.7665 31.5572 42.8813 31.7779C42.9949 31.5617 43.1461 31.4028 43.3359 31.2957C43.5257 31.1898 43.7552 31.1379 44.0266 31.1379C44.4448 31.1379 44.7792 31.2737 45.0308 31.5462C45.2823 31.8188 45.4081 32.1829 45.4081 32.6375V34.8951H44.7406V32.7401C44.7406 32.4256 44.671 32.1796 44.5331 32.0052C44.3952 31.8298 44.2021 31.7426 43.9527 31.7426C43.6647 31.7426 43.4584 31.8353 43.3326 32.0218C43.2057 32.2083 43.1428 32.5205 43.1428 32.9619V34.894H42.4962V33.0292H42.4973Z" fill="#939598"/>
<path d="M46.4351 33.0491C46.4351 32.7876 46.4792 32.5415 46.5664 32.3142C46.6557 32.0869 46.786 31.8828 46.9592 31.7018C47.1446 31.5021 47.3542 31.3487 47.5881 31.2406C47.8199 31.1324 48.0637 31.0795 48.3131 31.0795C48.5823 31.0795 48.8317 31.1269 49.0612 31.224C49.2907 31.32 49.4993 31.4624 49.6847 31.6511C49.8667 31.8375 50.0058 32.0472 50.1029 32.28C50.2 32.5128 50.2496 32.7545 50.2496 33.0017C50.2496 33.2555 50.2055 33.5015 50.1139 33.7421C50.0234 33.9815 49.8954 34.1912 49.7321 34.371C49.5434 34.5774 49.3327 34.734 49.0976 34.84C48.8637 34.9459 48.6143 35 48.3495 35C48.0792 35 47.8298 34.9503 47.6014 34.8532C47.3719 34.7561 47.1677 34.6116 46.9857 34.4207C46.8135 34.2386 46.6778 34.029 46.5807 33.7873C46.4825 33.5457 46.4351 33.2996 46.4351 33.0491ZM47.1236 33.0425C47.1236 33.411 47.2417 33.72 47.4756 33.9661C47.7095 34.2121 48.0008 34.3346 48.3495 34.3346C48.6927 34.3346 48.9807 34.211 49.2113 33.965C49.4441 33.7178 49.56 33.4077 49.56 33.037C49.56 32.6618 49.4441 32.3539 49.2113 32.1101C48.9807 31.8662 48.6905 31.7437 48.3429 31.7437C47.9986 31.7437 47.7084 31.8673 47.4745 32.1145C47.2417 32.3617 47.1236 32.6706 47.1236 33.0425Z" fill="#939598"/>
<path d="M51.9258 34.4383V34.894H51.2505V30.0014H51.9181V31.6433C52.0979 31.4612 52.2943 31.3266 52.5084 31.235C52.7225 31.1457 52.9553 31.1004 53.2058 31.1004C53.4882 31.1004 53.7387 31.1457 53.9594 31.2406C54.1801 31.3332 54.3842 31.4767 54.5696 31.6731C54.7417 31.8519 54.8742 32.0582 54.9668 32.2899C55.0584 32.5239 55.1048 32.7699 55.1048 33.027C55.1048 33.5843 54.9205 34.0488 54.5531 34.4207C54.1856 34.7914 53.7233 34.9768 53.1649 34.9768C52.9277 34.9768 52.7037 34.9315 52.4952 34.8411C52.2855 34.7495 52.0957 34.616 51.9258 34.4383ZM51.8982 33.0678C51.8982 33.4077 52.0229 33.7045 52.2723 33.9594C52.5216 34.2132 52.8107 34.3401 53.1374 34.3401C53.4938 34.3401 53.795 34.2143 54.0411 33.9616C54.2882 33.71 54.4107 33.3967 54.4107 33.0193C54.4107 32.6662 54.286 32.3661 54.0367 32.1178C53.7884 31.8706 53.4916 31.7481 53.144 31.7481C52.803 31.7481 52.5106 31.8761 52.2656 32.1332C52.0207 32.3903 51.8982 32.7026 51.8982 33.0678Z" fill="#939598"/>
<path d="M56.8107 30.765H56.1509V30.0014H56.8107V30.765ZM56.1509 34.894V31.1975H56.8107V34.894H56.1509Z" fill="#939598"/>
<path d="M58.0513 34.894V30.0014H58.7111V34.894H58.0513Z" fill="#939598"/>
<path d="M60.4459 33.2885C60.5022 33.5975 60.6423 33.848 60.8652 34.0389C61.0881 34.2309 61.3518 34.3269 61.6586 34.3269C61.8782 34.3269 62.0779 34.2739 62.2589 34.168C62.4387 34.062 62.5822 33.9131 62.6903 33.7211H63.4406C63.2696 34.1316 63.0324 34.4471 62.7267 34.6645C62.42 34.883 62.0647 34.9922 61.6586 34.9922C61.3861 34.9922 61.1356 34.9437 60.9105 34.8466C60.6843 34.7506 60.479 34.6049 60.2959 34.414C60.1237 34.232 59.988 34.0201 59.8909 33.7796C59.7938 33.5379 59.7441 33.2918 59.7441 33.0414C59.7441 32.781 59.7894 32.5382 59.8754 32.312C59.9648 32.0858 60.0961 31.8794 60.2683 31.693C60.4525 31.491 60.66 31.3399 60.8895 31.2373C61.1201 31.1346 61.3739 31.085 61.6465 31.085C61.9709 31.085 62.2732 31.16 62.5524 31.3112C62.8304 31.4624 63.0611 31.6742 63.242 31.9434C63.3502 32.1123 63.4296 32.2954 63.4815 32.4974C63.5333 32.6982 63.5587 32.9266 63.5587 33.1837V33.2896H60.4459V33.2885ZM62.8271 32.6905C62.7444 32.387 62.602 32.1509 62.3979 31.9843C62.1949 31.8177 61.951 31.7349 61.6652 31.7349C61.375 31.7349 61.1212 31.821 60.9083 31.992C60.6942 32.163 60.5474 32.3959 60.4658 32.6916H62.8271V32.6905Z" fill="#939598"/>
</svg>
