<svg width="24" height="24" viewBox="0 0 24 24" fill="none" xmlns="http://www.w3.org/2000/svg">
<g clip-path="url(#clip0_973_16175)">
<path d="M23.82 5.78996L22.905 3.82496C22.7914 3.58344 22.6261 3.36984 22.4208 3.19927C22.2155 3.02871 21.9753 2.90537 21.717 2.83796C18.81 2.04596 15.4755 1.56146 12.0375 1.50146C8.6491 1.55407 5.28014 2.02462 2.007 2.90246C1.7595 2.97446 1.3275 3.33746 1.0995 3.81596L0.180001 5.79147C0.0619699 6.03457 0.00043564 6.30122 8.24046e-07 6.57147V7.87646L-0.00149918 7.93796C-0.00149918 8.52596 0.475501 9.00296 1.0635 9.00296L1.113 9.00146H4.89C5.18764 8.99441 5.47072 8.8712 5.6787 8.65817C5.88669 8.44514 6.00308 8.15919 6.003 7.86147L6 7.78197V6.50696C6.00011 6.34397 6.04108 6.1836 6.11917 6.04052C6.19726 5.89745 6.30997 5.77623 6.447 5.68796C8.16125 4.77744 10.0967 4.36635 12.033 4.50146C13.9651 4.37112 15.8955 4.78035 17.6085 5.68347C17.823 5.83197 18.0015 6.13346 18.0015 6.47696V7.78497C17.9913 7.93824 18.0123 8.09199 18.063 8.23698C18.1138 8.38197 18.1933 8.5152 18.2968 8.62868C18.4004 8.74216 18.5258 8.83355 18.6655 8.89735C18.8052 8.96115 18.9564 8.99606 19.11 8.99996H22.8915L22.938 9.00146C23.2205 9.00146 23.4913 8.88926 23.6911 8.68953C23.8908 8.48981 24.003 8.21892 24.003 7.93646L24.0015 7.87197V6.56997C24.0006 6.2959 23.9375 6.02562 23.817 5.77946L23.82 5.78996Z" fill="#E9262A"/>
<path d="M18 12.45C17.0238 11.199 16.4951 9.65683 16.4985 8.07L16.5 7.944V7.5H15V9H9V7.5H7.5V7.995L7.5015 8.115C7.50366 9.70819 6.97066 11.2559 5.988 12.51L1.5 18V22.5H22.5V18L18 12.45ZM12 19.5C10.8065 19.5 9.66193 19.0259 8.81802 18.182C7.97411 17.3381 7.5 16.1935 7.5 15C7.5 13.8065 7.97411 12.6619 8.81802 11.818C9.66193 10.9741 10.8065 10.5 12 10.5C13.1935 10.5 14.3381 10.9741 15.182 11.818C16.0259 12.6619 16.5 13.8065 16.5 15C16.5 16.1935 16.0259 17.3381 15.182 18.182C14.3381 19.0259 13.1935 19.5 12 19.5Z" fill="#E9262A"/>
<path d="M15 15C15.009 15.3996 14.9382 15.7968 14.7915 16.1686C14.6449 16.5403 14.4255 16.879 14.1462 17.1648C13.8669 17.4506 13.5333 17.6777 13.165 17.8328C12.7967 17.9878 12.4011 18.0678 12.0015 18.0679C11.6019 18.068 11.2063 17.9882 10.8379 17.8333C10.4696 17.6784 10.1359 17.4515 9.85639 17.1659C9.57693 16.8802 9.35735 16.5416 9.21054 16.17C9.06374 15.7983 8.99267 15.4011 9.0015 15.0015C9.01883 14.2177 9.34234 13.4718 9.90276 12.9235C10.4632 12.3752 11.216 12.0681 12 12.0679C12.7841 12.0677 13.537 12.3744 14.0977 12.9224C14.6584 13.4705 14.9823 14.2162 15 15Z" fill="#E9262A"/>
</g>
<defs>
<clipPath id="clip0_973_16175">
<rect width="24" height="24" fill="white"/>
</clipPath>
</defs>
</svg>
