<svg width="32" height="14" viewBox="0 0 32 14" fill="none" xmlns="http://www.w3.org/2000/svg">
<path fill-rule="evenodd" clip-rule="evenodd" d="M30.036 3.97678C31.083 3.97299 31.9965 3.19163 32.0003 1.95552C32.003 0.898392 31.1964 0.0191632 30.0051 0.000237597C28.982 -0.0159843 28.0305 0.799979 28.0175 1.98094C28.0055 3.10187 28.8784 3.96542 30.036 3.97678ZM11.9818 4.66188C11.9818 4.77048 11.9815 4.87905 11.9812 4.98759V4.98765V4.9877V4.98776V4.98781V4.98787C11.9803 5.27267 11.9795 5.55734 11.9846 5.84229C11.9867 5.95639 11.945 5.97964 11.843 5.97964C11.5189 5.97827 11.1948 5.97796 10.8708 5.97765C10.4289 5.97723 9.98696 5.97681 9.54506 5.97369C9.43005 5.97315 9.37201 6.00235 9.33566 6.11861L9.2978 6.24082C9.0741 6.96243 8.85039 7.68409 8.72972 8.4324C8.67927 8.74548 8.66245 9.05964 8.74274 9.37165C8.8751 9.88696 9.22174 10.1633 9.73438 10.2514C10.1472 10.3223 10.5513 10.2633 10.9517 10.1611C11.0359 10.1396 11.1191 10.1139 11.2024 10.0883L11.2663 10.0686C11.3379 10.047 11.3819 10.0513 11.3922 10.1449C11.4567 10.7294 11.5251 11.3134 11.5934 11.8974L11.605 11.9967C11.6236 12.1569 11.6422 12.3175 11.6683 12.4765C11.6878 12.596 11.6537 12.6555 11.5343 12.6998C10.7146 13.0037 9.87271 13.1551 8.99553 13.0962C8.35161 13.0529 7.72289 12.9464 7.1343 12.6706C6.37972 12.317 5.83779 11.7584 5.54648 10.976C5.28989 10.2871 5.23239 9.57226 5.33003 8.84714C5.4166 8.2059 5.59802 7.58645 5.77937 6.96729L5.77943 6.96708C5.80604 6.87623 5.83264 6.78539 5.85895 6.69449C5.9197 6.48522 5.981 6.27596 6.04773 6.06832C6.07798 5.97415 6.0241 5.97419 5.96232 5.97423L5.95822 5.97423L5.57172 5.97543L5.57137 5.97543C5.31333 5.97628 5.05521 5.97712 4.79732 5.97748C4.62427 5.97802 4.62427 5.97694 4.62481 5.80765L4.62482 5.80607C4.62496 5.60244 4.62529 5.39886 4.62562 5.19529L4.62562 5.19384C4.62655 4.62269 4.62747 4.05168 4.62427 3.48038C4.62373 3.37169 4.65465 3.34033 4.76152 3.34087C5.22217 3.34431 5.68281 3.34451 6.14365 3.34471H6.14372H6.14375H6.14379H6.14382H6.14386H6.14389C6.33584 3.3448 6.52782 3.34488 6.71985 3.3452H6.72157C6.9043 3.3452 6.905 3.3452 6.95908 3.1727C7.01128 3.0061 7.0637 2.83957 7.11611 2.67305L7.11613 2.67299L7.11615 2.67293L7.11617 2.67287L7.11619 2.6728L7.11621 2.67274C7.26316 2.20594 7.41009 1.73918 7.55201 1.27095C7.59052 1.14388 7.64423 1.09684 7.78419 1.09792C8.50964 1.10266 9.2351 1.10192 9.96056 1.10117C10.2278 1.1009 10.4951 1.10062 10.7624 1.10062C10.9287 1.10062 10.9284 1.10168 10.879 1.25562L10.8774 1.26068C10.6712 1.90577 10.4662 2.55086 10.2622 3.1965C10.2166 3.34033 10.2188 3.34249 10.3718 3.34303L10.6181 3.34337H10.6181H10.6182H10.6182H10.6182H10.6183C11.0287 3.34397 11.439 3.34457 11.8489 3.34141C11.9471 3.34033 11.9846 3.36196 11.9829 3.47011C11.9778 3.75786 11.9787 4.04561 11.9796 4.33315V4.3332V4.33325V4.3333V4.33335V4.33339V4.33348V4.33357V4.33366V4.33375V4.33384C11.9799 4.44322 11.9802 4.55257 11.9802 4.66188H11.9818ZM3.33812 8.12851L3.33803 9.05634C3.33786 10.2937 3.33768 11.5313 3.34029 12.7685C3.34029 12.8778 3.31967 12.9102 3.20033 12.9097C2.37776 12.9044 1.55484 12.9052 0.731857 12.9059L0.151081 12.9064H0.149462C0.00189264 12.9064 0.000815552 12.9064 0.000815552 12.7583C0.000815552 9.68852 0.000815552 6.61825 0.0019005 3.54851C0.0019005 3.51993 0.00128414 3.49531 0.00075344 3.47411C-0.000750241 3.41405 -0.00156627 3.38146 0.0142737 3.36383C0.033071 3.34292 0.0753243 3.34309 0.16772 3.34347L0.210753 3.34358C0.544385 3.3434 0.877956 3.34358 1.21151 3.34376H1.21154H1.21157H1.2116H1.21163H1.21166C1.87868 3.34412 2.54562 3.34448 3.2128 3.34196C3.3213 3.34141 3.34083 3.37927 3.34083 3.4766C3.33872 4.68272 3.33891 5.88851 3.33909 7.09448V7.09453V7.09457V7.09462V7.09466V7.0947L3.3392 8.12851H3.33812ZM27.4066 10.3239C27.2856 10.3379 27.1636 10.3304 27.0437 10.3158C26.5408 10.2547 26.1372 10.0324 25.8893 9.57766C25.7032 9.23646 25.7277 8.86714 25.7884 8.50431C25.8375 8.20922 25.8984 7.91613 25.9593 7.62301L25.9593 7.62292L25.9594 7.62283L25.9594 7.62275L25.9595 7.62215C25.988 7.48478 26.0166 7.3474 26.0439 7.2098C26.1032 6.91048 26.1622 6.61108 26.2212 6.31164L26.2216 6.30975C26.3137 5.84219 26.4059 5.37451 26.4991 4.90683C26.5457 4.67242 26.5933 4.43828 26.6409 4.20414C26.6884 3.97038 26.736 3.73662 26.7825 3.50259C26.7826 3.50258 26.7827 3.50258 26.7827 3.50257L26.7937 3.44843C26.8011 3.4124 26.8084 3.37638 26.8153 3.34035C26.8723 3.05117 26.9277 2.7617 26.983 2.47223L26.9831 2.47188C27.0336 2.20775 27.0841 1.94363 27.1359 1.67976C27.1983 1.35965 27.2634 1.03954 27.3317 0.720506C27.3616 0.580457 27.374 0.515028 27.3388 0.487992C27.3079 0.464199 27.24 0.470147 27.1126 0.484206C26.5348 0.546931 25.9598 0.629122 25.3924 0.759979C24.9014 0.872992 24.4192 1.01629 23.9429 1.18121C23.9261 1.18716 23.9103 1.19311 23.8962 1.20013C23.8659 1.21582 23.8425 1.23853 23.8344 1.28611C23.817 1.38972 23.7949 1.49227 23.7728 1.59482L23.7728 1.5949C23.7597 1.65556 23.7467 1.71621 23.7346 1.77709C23.677 2.06876 23.6197 2.36051 23.5624 2.65224C23.4752 3.09661 23.3879 3.54095 23.2995 3.9849C23.2519 4.22295 23.2042 4.46047 23.156 4.69798C23.1559 4.69802 23.1559 4.69806 23.1558 4.6981L23.101 4.96813C22.9982 5.47497 22.8953 5.9816 22.7972 6.48901C22.7564 6.70005 22.7124 6.9105 22.6684 7.12093C22.5515 7.67987 22.4346 8.23874 22.3779 8.80874C22.3166 9.42896 22.3041 10.0454 22.5021 10.6478C22.6269 11.0279 22.8064 11.3788 23.0695 11.6838C23.0717 11.6908 23.0771 11.6946 23.0842 11.6957C23.0889 11.7033 23.0933 11.7111 23.0977 11.7189C23.1065 11.7345 23.1153 11.7501 23.1265 11.7638C23.5713 12.2959 24.1371 12.649 24.7881 12.8745C25.4651 13.1086 26.1638 13.1416 26.8712 13.0897C26.9558 13.0832 26.9829 13.0389 26.9976 12.9659C27.0741 12.5841 27.1522 12.2029 27.2309 11.8222L27.2309 11.8222L27.2309 11.8221L27.2309 11.822L27.2309 11.8219C27.3253 11.3646 27.4197 10.9072 27.5173 10.4504C27.5384 10.3509 27.5102 10.3114 27.4066 10.3239ZM17.0307 6.90376V6.89511H17.149L17.1707 6.89512H18.4368H18.4384C18.6044 6.89512 18.6066 6.89512 18.5952 6.72641C18.5816 6.52796 18.5138 6.34519 18.4037 6.18297C18.2491 5.95533 18.0609 5.79257 17.8439 5.68226C17.844 5.68205 17.8442 5.68184 17.8443 5.68163C17.6214 5.56867 17.3692 5.50975 17.0915 5.49353C16.2458 5.44378 15.5677 6.00993 15.4771 6.76371C15.4651 6.86537 15.4809 6.90538 15.5894 6.90484C15.9385 6.90287 16.2879 6.90319 16.6374 6.90352H16.6374H16.6375L17.0307 6.90376ZM19.3684 3.85995C19.458 3.7742 19.5501 3.68891 19.6449 3.60422C18.9766 3.22084 18.2486 3.02077 17.4723 2.97264C17.1213 2.95101 16.7709 2.9429 16.4215 2.99697C16.3987 2.99894 16.3758 3.00075 16.3528 3.00258L16.3527 3.00258L16.2886 3.00779C16.1248 3.01374 15.9653 3.04185 15.8091 3.09268C15.798 3.09458 15.7867 3.09633 15.7754 3.09809L15.7754 3.09809C15.7701 3.09892 15.7649 3.09974 15.7596 3.10058C15.7537 3.10153 15.7477 3.10249 15.7418 3.1035C15.6337 3.10885 15.5328 3.14299 15.4319 3.17712C15.4002 3.18784 15.3685 3.19857 15.3366 3.2084C14.9666 3.32195 14.614 3.47444 14.2929 3.6929C14.2885 3.69533 14.284 3.69763 14.2796 3.69992L14.2796 3.69993C14.2751 3.70223 14.2706 3.70452 14.2663 3.70695C14.1974 3.73994 14.1312 3.77617 14.0791 3.83403C14.071 3.83835 14.0623 3.84268 14.0536 3.847C14.0308 3.84538 14.0151 3.85349 14.0151 3.87891L13.9831 3.89783C13.9305 3.91351 13.8936 3.94974 13.8605 3.99084L13.8556 3.99412L13.8556 3.99414C13.8505 3.99754 13.8452 4.0011 13.8399 4.00436C13.8263 4.00003 13.8193 4.00382 13.8231 4.01896C13.8169 4.02278 13.8111 4.02688 13.8051 4.03106L13.7976 4.03626L13.7894 4.03464C13.7894 4.03464 13.7911 4.04221 13.7911 4.04275C13.7835 4.04491 13.7791 4.04978 13.7781 4.05789C13.7059 4.0925 13.65 4.14549 13.6012 4.20767C13.5947 4.20767 13.5904 4.21092 13.5893 4.2174C13.3761 4.38557 13.1971 4.58456 13.0463 4.80896L13.0421 4.81426C13.0358 4.82239 13.0292 4.83082 13.0229 4.83925C13.0012 4.84465 12.9947 4.85979 12.9969 4.88034L12.9879 4.89116L12.979 4.90197L12.9709 4.90035L12.9736 4.90792L12.9605 4.92793L12.9529 4.92684L12.9578 4.93279L12.9499 4.94353L12.9393 4.95824L12.934 4.96578C12.8926 4.98638 12.8779 5.02515 12.863 5.0643L12.8607 5.07014L12.8607 5.07016C12.8531 5.08042 12.8455 5.09069 12.8374 5.10096C12.7951 5.13611 12.7739 5.18261 12.7587 5.23398L12.7587 5.23408C12.7522 5.24378 12.7457 5.25348 12.7398 5.26318C12.7208 5.26913 12.7105 5.28048 12.7153 5.30157C12.7114 5.30786 12.7076 5.31436 12.7037 5.32093L12.6964 5.33347C12.6681 5.34267 12.6584 5.36267 12.6644 5.39133C12.6595 5.40215 12.6546 5.41296 12.6502 5.42378C12.4859 5.67522 12.3812 5.95261 12.2944 6.23812L12.2913 6.24811C12.2869 6.26224 12.2824 6.27658 12.2776 6.29057C12.1523 6.64529 12.0817 7.01082 12.059 7.38609L12.0543 7.45314L12.0497 7.52019C12.0477 7.53184 12.0454 7.54344 12.043 7.55502C12.0377 7.58106 12.0324 7.607 12.0313 7.6332C12.0156 8.00631 12.0145 8.37887 12.0584 8.75035C12.1148 9.22998 12.2212 9.69718 12.4197 10.1406C12.4175 10.1481 12.4202 10.1541 12.4273 10.1584C12.4392 10.2271 12.468 10.2882 12.5119 10.3428L12.5167 10.354L12.5255 10.3742C12.5819 10.518 12.6497 10.6554 12.7441 10.7792L12.7441 10.7792C12.7512 10.7906 12.7582 10.8019 12.7658 10.8132C12.7684 10.8572 12.7966 10.8857 12.8248 10.9142L12.8298 10.9192L12.8359 10.9279C12.8427 10.9376 12.8497 10.9476 12.8564 10.9576L13.1954 11.4091C13.1911 11.421 13.1949 11.4248 13.2068 11.4205L13.2127 11.4283C13.2173 11.4346 13.2219 11.4409 13.2269 11.447C13.516 11.8098 13.873 12.0975 14.2636 12.3414C15.0068 12.8058 15.8221 13.0465 16.6966 13.0978C17.8075 13.1633 18.8692 12.9929 19.85 12.443C20.17 12.2635 20.4668 12.0504 20.7158 11.7774L20.7183 11.7745L20.7184 11.7743C20.7252 11.7666 20.7324 11.7585 20.7391 11.7503C20.8215 11.689 20.8844 11.61 20.9472 11.5311L20.9472 11.5311L20.9473 11.5311C20.9708 11.5014 20.9944 11.4718 21.019 11.4432C21.0732 11.3805 21.0374 11.3442 20.9761 11.308C20.5789 11.0722 20.1821 10.8357 19.7853 10.5992L19.7849 10.5989L19.7821 10.5973C19.4193 10.381 19.0565 10.1648 18.6934 9.94916C18.5366 9.85594 18.5345 9.85829 18.4142 9.98886L18.413 9.99025L18.4064 9.99743C18.3744 10.0324 18.3422 10.0676 18.3072 10.0989C17.8526 10.5061 17.3161 10.6007 16.7334 10.4958C16.1183 10.3855 15.5981 9.84912 15.5037 9.23647C15.4991 9.20682 15.4947 9.18066 15.4908 9.15758C15.4761 9.07021 15.4689 9.02695 15.4871 9.00585C15.5051 8.98515 15.5476 8.98578 15.6319 8.98701C15.6568 8.98738 15.6853 8.9878 15.7179 8.98774C15.9432 8.98774 16.168 8.98774 16.3933 8.98721C17.3828 8.98666 18.3723 8.98612 19.3617 8.98612C19.8999 7.61591 20.6968 6.58528 21.5739 5.80987C21.2202 4.95011 20.6588 4.25364 19.8651 3.73887C19.7925 3.69182 19.7187 3.64748 19.6444 3.60477C19.5498 3.68926 19.4578 3.77437 19.3684 3.85995ZM19.3622 8.98667C20.1596 8.98667 20.9576 8.98721 21.755 8.98775C21.85 8.98775 21.8901 8.96829 21.9053 8.86555C22.0485 7.88953 21.991 6.93297 21.6487 5.99967C21.6254 5.93532 21.6004 5.8726 21.5749 5.80988C20.6972 6.58528 19.9003 7.61646 19.3622 8.98667Z" fill="#EE1C25"/>
<path fill-rule="evenodd" clip-rule="evenodd" d="M27.1126 0.483993C27.24 0.469934 27.3079 0.463986 27.3388 0.487778C27.374 0.514815 27.3616 0.580243 27.3317 0.720292C27.2634 1.03932 27.1983 1.35944 27.1359 1.67955C27.0841 1.94342 27.0336 2.20754 26.9831 2.47167C26.9277 2.76124 26.8723 3.05084 26.8153 3.34014C26.8084 3.37616 26.8011 3.41219 26.7937 3.44822C26.79 3.46626 26.7864 3.48431 26.7827 3.50235C26.3287 3.55589 24.781 3.79759 23.1558 4.69899C23.204 4.46107 23.2518 4.22315 23.2995 3.98469C23.3879 3.54074 23.4752 3.0964 23.5624 2.65202C23.6197 2.36029 23.677 2.06854 23.7346 1.77688C23.7467 1.716 23.7597 1.65534 23.7728 1.59469C23.7949 1.49211 23.817 1.38954 23.8344 1.2859C23.8425 1.23831 23.8659 1.2156 23.8962 1.19992C23.9103 1.19289 23.9261 1.18694 23.9429 1.181C24.4192 1.01607 24.9014 0.872779 25.3924 0.759766C25.9598 0.628909 26.5348 0.546718 27.1126 0.483993ZM19.6444 3.60455C19.7187 3.64727 19.7925 3.69161 19.8651 3.73865C20.6588 4.25343 21.2202 4.94989 21.5739 5.80966C20.6968 6.58506 19.8999 7.6157 19.3617 8.98591C18.3723 8.98591 17.3828 8.98645 16.3933 8.98699C16.4541 8.7004 16.6526 7.90012 17.1463 6.8949H17.1707H18.4368H18.4384C18.6044 6.8949 18.6066 6.8949 18.5952 6.72619C18.5817 6.52775 18.5138 6.34498 18.4037 6.18276C18.2491 5.95511 18.0609 5.79235 17.8439 5.68204C18.2979 4.99802 18.8865 4.28155 19.6444 3.60455Z" fill="url(#paint0_linear_848_12963)"/>
<defs>
<linearGradient id="paint0_linear_848_12963" x1="27.5" y1="0.499786" x2="16.5" y2="9.99979" gradientUnits="userSpaceOnUse">
<stop stop-color="#FFDCA1"/>
<stop offset="1" stop-color="#FDE0A6" stop-opacity="0"/>
</linearGradient>
</defs>
</svg>
