<?xml version="1.0" standalone="no"?>
<!DOCTYPE svg PUBLIC "-//W3C//DTD SVG 20010904//EN"
 "http://www.w3.org/TR/2001/REC-SVG-20010904/DTD/svg10.dtd">
<svg version="1.0" xmlns="http://www.w3.org/2000/svg"
 width="640.000000pt" height="136.000000pt" viewBox="0 0 640.000000 136.000000"
 preserveAspectRatio="xMidYMid meet">

<g transform="translate(0.000000,136.000000) scale(0.100000,-0.100000)"
fill="#ef002e" stroke="none">
<path d="M1332 1274 c-20 -14 -22 -23 -22 -120 l0 -105 33 23 c25 18 50 24
114 29 44 3 88 11 97 18 24 20 22 132 -2 154 -26 23 -187 24 -220 1z"/>
<path d="M3102 1240 c-31 -13 -42 -49 -42 -141 l0 -79 -80 0 -80 0 0 -60 c0
-82 18 -100 99 -100 l60 0 3 -282 c3 -272 4 -285 26 -330 29 -58 78 -103 152
-137 51 -24 67 -26 221 -29 164 -4 167 -3 183 19 10 15 16 44 16 84 l0 60 -93
1 c-99 0 -149 17 -194 66 -39 42 -43 71 -43 314 l0 234 265 0 265 0 0 -277 c0
-272 1 -279 24 -328 30 -64 76 -107 151 -142 57 -27 68 -28 227 -31 l167 -3
15 30 c9 16 16 54 16 83 l0 54 -68 -4 c-111 -6 -191 26 -239 97 -22 33 -23 41
-23 277 l0 244 143 0 c176 0 179 2 185 94 l4 66 -166 0 -166 0 0 74 c0 137
-24 161 -156 154 -104 -5 -114 -18 -114 -139 l0 -89 -265 0 -265 0 0 89 c0
124 -10 135 -122 138 -45 2 -93 -2 -106 -7z"/>
<path d="M5840 1243 c-8 -3 -23 -12 -32 -21 -17 -14 -18 -49 -18 -471 0 -420
2 -459 19 -496 24 -53 84 -110 151 -143 51 -25 66 -27 208 -30 84 -2 164 -1
177 2 28 7 45 51 45 115 l0 47 -69 -4 c-131 -8 -236 47 -260 136 -7 23 -11
190 -11 434 l0 397 -26 20 c-22 17 -40 21 -98 20 -39 0 -78 -3 -86 -6z"/>
<path d="M2070 1016 c-226 -48 -317 -125 -351 -295 -14 -72 -7 -303 11 -389
15 -67 62 -136 123 -183 84 -63 83 -63 522 -66 463 -5 433 -11 442 96 l6 60
-349 3 c-381 3 -377 3 -436 65 -34 36 -48 73 -48 129 l0 44 379 0 c376 0 378
0 412 23 51 34 69 78 69 169 0 179 -96 294 -285 338 -79 18 -417 22 -495 6z
m367 -172 c100 -27 167 -120 130 -178 l-17 -25 -249 -3 c-242 -3 -250 -4 -280
-26 l-31 -23 0 60 c0 96 27 143 104 183 71 36 235 42 343 12z"/>
<path d="M4870 1016 c-226 -48 -317 -125 -351 -295 -14 -72 -7 -303 11 -389
15 -67 62 -136 123 -183 84 -63 83 -63 522 -66 463 -5 433 -11 442 96 l6 60
-349 3 c-381 3 -377 3 -436 65 -34 36 -48 73 -48 129 l0 44 379 0 c376 0 378
0 412 23 51 34 69 78 69 169 0 179 -96 294 -285 338 -79 18 -417 22 -495 6z
m367 -172 c100 -27 167 -120 130 -178 l-17 -25 -249 -3 c-242 -3 -250 -4 -280
-26 l-31 -23 0 60 c0 96 27 143 104 183 71 36 235 42 343 12z"/>
<path d="M23 1008 c3 -7 108 -211 234 -452 161 -311 236 -445 256 -460 22 -16
47 -22 109 -25 96 -4 144 8 180 46 20 22 478 882 478 899 0 2 -48 4 -107 4
-120 0 -151 -11 -195 -70 -13 -17 -88 -169 -168 -338 -90 -188 -151 -307 -160
-307 -9 0 -75 126 -170 323 -122 255 -163 331 -193 358 l-37 34 -116 0 c-89 0
-115 -3 -111 -12z"/>
<path d="M1330 1000 c-19 -19 -20 -33 -20 -453 0 -408 1 -435 18 -450 26 -24
203 -24 226 -1 14 14 16 68 16 447 0 375 -2 435 -16 455 -14 20 -23 22 -110
22 -81 0 -97 -3 -114 -20z"/>
</g>
</svg>
