<svg width="80" height="40" viewBox="0 0 80 40" fill="none" xmlns="http://www.w3.org/2000/svg">
<path fill-rule="evenodd" clip-rule="evenodd" d="M62.5312 27.2175C62.5443 27.2962 62.5574 27.388 62.5574 27.4667V27.7945C62.5705 28.07 62.4787 28.3323 62.3213 28.5421C62.2295 28.6339 62.1246 28.7126 62.0066 28.7519C61.8885 28.8044 61.7574 28.8175 61.6262 28.8175C61.4951 28.8306 61.364 28.8044 61.2459 28.7519C61.1279 28.6995 61.023 28.6339 60.9312 28.5421C60.7607 28.3323 60.6689 28.0568 60.6951 27.7945V27.4667C60.682 27.1913 60.7607 26.929 60.9312 26.7191C61.023 26.6273 61.1279 26.5486 61.2459 26.4962C61.364 26.4437 61.4951 26.4306 61.6262 26.4306C61.7574 26.4175 61.8885 26.4437 62.0066 26.4962C62.1246 26.5486 62.2426 26.6142 62.3213 26.706C62.3607 26.7585 62.4 26.824 62.4393 26.8895L62.4394 26.8896C62.4787 26.8503 62.4918 26.7978 62.5049 26.7454V26.5224C62.5049 26.4962 62.5312 26.47 62.5705 26.47H62.741C62.7541 26.47 62.7672 26.47 62.7803 26.4831L62.8066 26.5093C62.8197 26.8765 62.7279 27.1126 62.5312 27.2175ZM62.1771 27.8077V27.4798C62.1771 27.3486 62.164 27.2175 62.1115 27.0995C62.0722 26.9945 62.0066 26.9159 61.9279 26.8634C61.8361 26.7978 61.7181 26.7716 61.6 26.7847C61.5213 26.7847 61.4426 26.7978 61.364 26.8241C61.2853 26.8503 61.2197 26.9027 61.1672 26.9683C61.0623 27.1257 61.0099 27.3093 61.023 27.4929V27.8208C61.023 28.2929 61.2066 28.529 61.5869 28.529C61.6656 28.5421 61.7574 28.529 61.823 28.4896C61.9017 28.4634 61.9672 28.4109 62.0197 28.3454C62.1377 28.1749 62.1902 27.9913 62.1771 27.8077ZM62.2558 25.5388C62.2558 25.5519 62.2426 25.565 62.2426 25.565L61.7574 26.0896L61.7049 26.1421C61.6918 26.1552 61.6787 26.1552 61.6525 26.1552H61.4164C61.3902 26.1552 61.3771 26.1421 61.3771 26.129V26.1027C61.3771 26.0962 61.3804 26.0929 61.3836 26.0896C61.3869 26.0863 61.3902 26.0831 61.3902 26.0765L61.8099 25.5519L61.8623 25.4995C61.8689 25.4995 61.8787 25.4962 61.8885 25.4929C61.8984 25.4896 61.9082 25.4863 61.9148 25.4863H62.1902C62.2002 25.4914 62.2088 25.4954 62.2161 25.4989C62.2472 25.5135 62.2558 25.5176 62.2558 25.5388ZM45.39 27.4667C45.39 27.388 45.3769 27.2962 45.3638 27.2175C45.5736 27.1126 45.6523 26.8765 45.6261 26.5093L45.5999 26.4831C45.5868 26.47 45.5736 26.47 45.5605 26.47H45.39C45.3507 26.47 45.3245 26.4962 45.3245 26.5224V26.7454C45.3245 26.7978 45.3114 26.8503 45.272 26.8896C45.2327 26.8241 45.1933 26.7585 45.154 26.706C45.0753 26.6142 44.9573 26.5487 44.8392 26.4962C44.7212 26.4437 44.59 26.4175 44.4589 26.4306C44.3277 26.4306 44.1966 26.4437 44.0786 26.4962C43.9605 26.5487 43.8556 26.6273 43.7638 26.7192C43.5933 26.929 43.5146 27.1913 43.5277 27.4667V27.7946C43.5015 28.0569 43.5933 28.3323 43.7638 28.5421C43.9474 28.7126 44.1966 28.8175 44.4589 28.8175C44.7212 28.8175 44.9704 28.7257 45.154 28.5421C45.3245 28.3323 45.4032 28.07 45.39 27.7946V27.4667ZM45.0228 27.4798V27.8077C45.0228 27.9913 44.9704 28.1749 44.8786 28.3323C44.8261 28.3978 44.7605 28.4503 44.6818 28.4765C44.6032 28.5028 44.5245 28.5159 44.4458 28.5159C44.0654 28.5159 43.8818 28.2798 43.8818 27.8077V27.4798C43.8687 27.2962 43.9212 27.1126 44.0261 26.9552C44.0786 26.8896 44.1441 26.8372 44.2228 26.811C44.2884 26.7716 44.3802 26.7585 44.4589 26.7716C44.5638 26.7716 44.6818 26.7978 44.7736 26.8634C44.8523 26.9159 44.9179 27.0077 44.9573 27.0995C45.0097 27.2175 45.0228 27.3487 45.0228 27.4798ZM45.0884 25.5519V25.5388C45.0884 25.5257 45.0753 25.5126 45.0491 25.5126H44.7736C44.7671 25.5126 44.7573 25.5159 44.7474 25.5192L44.7474 25.5192C44.7376 25.5224 44.7277 25.5257 44.7212 25.5257L44.6687 25.5782L44.2491 26.1028C44.2359 26.1159 44.2359 26.129 44.2359 26.1421C44.2359 26.1552 44.2491 26.1683 44.2753 26.1683H44.5114C44.5245 26.1683 44.5376 26.1683 44.5507 26.1552L44.6032 26.1028L45.0753 25.5651L45.0884 25.5519ZM38.7933 26.0765C38.8589 25.9847 38.8982 25.8667 38.8851 25.7486H38.8589V25.6699C38.8589 25.6437 38.8458 25.6306 38.8327 25.6175C38.8261 25.6175 38.8228 25.6142 38.8195 25.6109C38.8163 25.6077 38.813 25.6044 38.8064 25.6044H38.7802H38.649C38.6228 25.6044 38.6097 25.6175 38.5966 25.6306C38.5966 25.6372 38.5933 25.6404 38.59 25.6437C38.5868 25.647 38.5835 25.6503 38.5835 25.6568V25.6831V25.7749C38.5966 25.8273 38.5835 25.8798 38.5572 25.9191C38.5507 25.9257 38.5441 25.929 38.5376 25.9322C38.531 25.9355 38.5245 25.9388 38.5179 25.9454C38.5048 25.9585 38.4786 25.9585 38.4654 25.9585C38.4392 25.9585 38.4261 25.9585 38.3999 25.9454C38.3824 25.9454 38.3649 25.9337 38.3474 25.922C38.3387 25.9162 38.3299 25.9104 38.3212 25.906L38.0195 25.6699C37.954 25.6044 37.8622 25.565 37.7704 25.565C37.7179 25.565 37.6654 25.565 37.613 25.5913C37.5605 25.6175 37.5212 25.6437 37.4818 25.6831C37.4031 25.7749 37.3638 25.906 37.3769 26.024V26.1159V26.1421C37.3769 26.1552 37.3769 26.1683 37.39 26.1683C37.3966 26.1683 37.3999 26.1716 37.4031 26.1749C37.4064 26.1781 37.4097 26.1814 37.4163 26.1814H37.4425H37.5736C37.5868 26.1814 37.613 26.1683 37.6261 26.1552C37.6261 26.1486 37.6294 26.1454 37.6327 26.1421C37.6359 26.1388 37.6392 26.1355 37.6392 26.129V26.1027V26.0109C37.6392 25.9585 37.6392 25.906 37.6654 25.8667C37.6654 25.8579 37.6771 25.8492 37.6888 25.8404L37.6888 25.8404C37.6946 25.8361 37.7004 25.8317 37.7048 25.8273C37.7179 25.8142 37.731 25.8142 37.7572 25.8142C37.7835 25.8142 37.8097 25.8142 37.8359 25.8273C37.8753 25.8536 37.9146 25.8798 37.9408 25.906L38.2031 26.1027C38.2818 26.1683 38.3868 26.1945 38.4786 26.1945C38.5441 26.1945 38.5966 26.1814 38.649 26.1683C38.7015 26.1421 38.754 26.1159 38.7933 26.0765ZM38.2425 28.7388V28.7126H38.2687V26.5749C38.2687 26.5486 38.2556 26.5224 38.2425 26.5093C38.2355 26.5058 38.2294 26.5023 38.2237 26.499C38.2083 26.4901 38.1961 26.4831 38.1769 26.4831H37.9802H37.954C37.9484 26.4831 37.9452 26.4831 37.9423 26.4841C37.9385 26.4854 37.9353 26.4886 37.9277 26.4962L37.9277 26.4962L37.9277 26.4962C37.9227 26.5012 37.9177 26.5043 37.9134 26.5069C37.9065 26.5112 37.9015 26.5143 37.9015 26.5224C37.8884 26.5224 37.8884 26.5355 37.8884 26.5486V28.6995C37.8884 28.7126 37.9015 28.7388 37.9146 28.7519L37.9146 28.7519C37.9277 28.765 37.9409 28.7781 37.9671 28.7781H38.1638H38.2031C38.2163 28.7781 38.2163 28.7781 38.2294 28.765C38.2294 28.7585 38.2327 28.7552 38.2359 28.7519C38.2392 28.7486 38.2425 28.7454 38.2425 28.7388ZM32.3803 28.6863V28.6863L32.3541 25.7355V25.7355C32.3541 25.7224 32.3541 25.6962 32.341 25.6831C32.3344 25.6831 32.3311 25.6798 32.3279 25.6765C32.3246 25.6732 32.3213 25.67 32.3147 25.67H32.2885H32.0525H32.0262C32.0131 25.67 32.0131 25.67 32 25.6831L32 25.6831C32 25.6896 31.9967 25.6929 31.9934 25.6962C31.9902 25.6995 31.9869 25.7027 31.9869 25.7093V25.7355V28.2011L30.6754 25.7355C30.6754 25.7093 30.6492 25.6831 30.6229 25.67C30.5836 25.6568 30.5443 25.6568 30.5049 25.6568H30.5049H30.2688C30.2535 25.6568 30.2426 25.6613 30.2336 25.6651C30.2272 25.6677 30.2218 25.67 30.2164 25.67C30.2033 25.67 30.1902 25.6831 30.177 25.6962L30.177 25.6962L30.177 25.6962C30.1639 25.7093 30.1508 25.7224 30.1508 25.7355C30.1377 25.7618 30.1377 25.7749 30.1377 25.788V28.7519C30.1377 28.7913 30.1639 28.8044 30.2164 28.8044H30.4393H30.4656C30.4787 28.8044 30.4918 28.8044 30.4918 28.7913C30.4918 28.7847 30.4951 28.7814 30.4984 28.7781C30.5016 28.7749 30.5049 28.7716 30.5049 28.765V28.7388V26.2732C30.5049 26.2601 30.518 26.2601 30.518 26.2601C30.5311 26.2601 30.5311 26.2732 30.5311 26.2732L31.8426 28.7519C31.8557 28.7781 31.882 28.7913 31.9082 28.8044C31.9344 28.8175 31.9606 28.8175 31.9869 28.8175H31.9869H32.2492C32.2645 28.8175 32.2754 28.813 32.2844 28.8093C32.2908 28.8066 32.2962 28.8044 32.3016 28.8044C32.3147 28.8044 32.3279 28.7913 32.341 28.7782C32.3541 28.765 32.3672 28.7519 32.3672 28.7388C32.3803 28.7126 32.3803 28.6995 32.3803 28.6863ZM34.19 29.2896C34.0851 29.3159 33.9802 29.329 33.8753 29.329C33.7572 29.329 33.6523 29.3159 33.5867 29.3028C33.5068 29.2799 33.4169 29.2471 33.2998 29.2044L33.2998 29.2044L33.2458 29.1847C33.2326 29.1716 33.2195 29.1716 33.2064 29.1716H33.2064H33.2064C33.1933 29.1716 33.1802 29.1716 33.1671 29.1847C33.1621 29.1897 33.1571 29.1928 33.1528 29.1955C33.1459 29.1997 33.1408 29.2028 33.1408 29.2109C33.1277 29.2109 33.1277 29.2241 33.1277 29.2372V29.2372V29.3814C33.1277 29.388 33.131 29.3978 33.1343 29.4077L33.1343 29.4077L33.1343 29.4077C33.1376 29.4175 33.1408 29.4273 33.1408 29.4339C33.1408 29.4426 33.1525 29.4514 33.1642 29.4601C33.17 29.4645 33.1758 29.4689 33.1802 29.4732L33.1802 29.4732C33.272 29.5126 33.3638 29.5519 33.4687 29.5782C33.5999 29.6175 33.731 29.6306 33.8753 29.6306C34.1245 29.6569 34.3605 29.5913 34.5572 29.447C34.7015 29.3159 34.7802 29.106 34.7802 28.8044V26.6405V26.6011C34.7802 26.6011 34.7802 26.588 34.7671 26.5749C34.754 26.5618 34.7277 26.5487 34.7015 26.5487C34.4523 26.4831 34.19 26.4437 33.9408 26.4437C33.7572 26.4437 33.5867 26.4831 33.4163 26.5618C33.272 26.6405 33.1671 26.7585 33.1015 26.9028C33.0228 27.0864 32.9966 27.2831 32.9966 27.4798V27.7946C32.9966 28.4896 33.3113 28.8306 33.9408 28.8306C34.0326 28.8306 34.1113 28.8306 34.19 28.8175C34.2818 28.8044 34.3605 28.7913 34.413 28.7782V28.8044C34.413 28.9093 34.3999 29.0273 34.3605 29.1323C34.3212 29.2109 34.2687 29.2634 34.19 29.2896ZM34.3999 26.7978V28.4634C34.3212 28.4896 34.2425 28.5028 34.1638 28.5028C34.0851 28.5159 34.0064 28.5159 33.9277 28.5159C33.8228 28.529 33.7179 28.5028 33.613 28.4503C33.5343 28.3978 33.4687 28.3191 33.4294 28.2273C33.3769 28.0962 33.3638 27.9388 33.3638 27.7946V27.4798C33.3638 27.3749 33.3638 27.2568 33.39 27.1519C33.4031 27.0732 33.4294 26.9946 33.4818 26.929C33.5343 26.8634 33.5999 26.8241 33.6654 26.7978C33.7441 26.7716 33.8359 26.7585 33.9277 26.7585C34.0851 26.7585 34.2425 26.7716 34.3999 26.7978ZM37.1933 28.7126C37.1933 28.7257 37.1933 28.7388 37.1802 28.7388C37.1802 28.7469 37.1752 28.75 37.1683 28.7543C37.164 28.7569 37.159 28.76 37.154 28.765L37.154 28.765C37.1409 28.7782 37.1409 28.7782 37.1277 28.7782C37.1146 28.7782 37.1015 28.7913 37.1015 28.7913H36.9048H36.8786C36.8705 28.7913 36.8674 28.7863 36.8631 28.7793C36.8604 28.7751 36.8573 28.77 36.8523 28.765L36.8523 28.765C36.8392 28.7519 36.8392 28.7519 36.8392 28.7388C36.8392 28.7257 36.8261 28.7126 36.8261 28.7126V27.3224C36.8392 27.165 36.7999 27.0077 36.7081 26.8896C36.6687 26.8503 36.6032 26.8109 36.5507 26.7978C36.4982 26.7716 36.4327 26.7716 36.3671 26.7716C36.2753 26.7716 36.1704 26.7847 36.0786 26.7978C35.9736 26.8109 35.8818 26.8372 35.79 26.8896V28.7126C35.79 28.7257 35.79 28.7388 35.7769 28.7388C35.7769 28.7454 35.7736 28.7486 35.7704 28.7519C35.7671 28.7552 35.7638 28.7585 35.7638 28.765L35.7376 28.7913C35.731 28.7913 35.7245 28.7945 35.7179 28.7978C35.7113 28.8011 35.7048 28.8044 35.6982 28.8044H35.5015H35.4753L35.4491 28.7782L35.4228 28.7519C35.4228 28.7388 35.4097 28.7257 35.4097 28.7257V25.7224C35.4097 25.7093 35.4097 25.6962 35.4228 25.6962C35.4228 25.6896 35.4261 25.6863 35.4294 25.6831C35.4327 25.6798 35.4359 25.6765 35.4359 25.67L35.4359 25.6699C35.4435 25.6624 35.4467 25.6592 35.4505 25.6578C35.4534 25.6568 35.4566 25.6568 35.4622 25.6568H35.4884H35.6982H35.7376C35.7507 25.6568 35.7638 25.67 35.7638 25.67C35.7769 25.6831 35.79 25.7093 35.79 25.7355V26.6011L35.79 26.6011C35.895 26.5618 35.9999 26.5224 36.1179 26.4962C36.1897 26.4782 36.2616 26.4726 36.3376 26.4666C36.3726 26.4638 36.4086 26.461 36.4458 26.4568C36.59 26.4568 36.7212 26.4831 36.8392 26.5486C36.9572 26.6142 37.0491 26.7191 37.1015 26.8372C37.1671 26.9945 37.2064 27.165 37.1933 27.3355V28.7126ZM40.1312 28.7126V26.6798C40.1312 26.6536 40.1312 26.6273 40.1443 26.6142C40.1509 26.6077 40.1607 26.6011 40.1705 26.5946C40.1804 26.588 40.1902 26.5814 40.1968 26.5749C40.3541 26.5355 40.5115 26.4962 40.682 26.47C40.8 26.4437 40.9312 26.4437 41.0492 26.4437C41.141 26.4437 41.2459 26.4569 41.3246 26.4831C41.4033 26.5093 41.482 26.5487 41.5345 26.6142C41.7574 26.5093 41.9935 26.4437 42.2427 26.4437C42.3607 26.4437 42.4918 26.47 42.5968 26.5224C42.7017 26.5749 42.7804 26.6667 42.8328 26.7716C42.8984 26.9159 42.9246 27.0732 42.9246 27.2306V28.7257V28.7519C42.9246 28.7585 42.9213 28.7618 42.9181 28.765C42.9148 28.7683 42.9115 28.7716 42.9115 28.7782C42.8984 28.7913 42.8984 28.7913 42.8853 28.7913H42.8591H42.6623C42.6492 28.7913 42.6361 28.7913 42.623 28.7782C42.6099 28.7782 42.5968 28.765 42.5968 28.765C42.5836 28.7519 42.5836 28.7519 42.5836 28.7388V28.7388V28.7126V27.2044C42.5968 27.1388 42.5836 27.0732 42.5705 27.0208C42.5574 26.9552 42.5312 26.9028 42.4918 26.8503C42.4525 26.8109 42.4132 26.7847 42.3607 26.7716C42.3082 26.7585 42.2558 26.7454 42.2164 26.7454C42.0459 26.7585 41.8754 26.7847 41.7181 26.8634C41.7443 26.9683 41.7574 27.0864 41.7574 27.1913V28.6995V28.7257C41.7574 28.7323 41.7541 28.7355 41.7509 28.7388C41.7476 28.7421 41.7443 28.7454 41.7443 28.7519C41.7443 28.76 41.7393 28.7631 41.7324 28.7674C41.7281 28.7701 41.7231 28.7732 41.7181 28.7782C41.705 28.7913 41.6918 28.7913 41.6918 28.7913H41.4689C41.4558 28.7913 41.4427 28.7913 41.4427 28.7782C41.4361 28.7782 41.4328 28.7749 41.4295 28.7716C41.4263 28.7683 41.423 28.765 41.4164 28.765C41.4033 28.7519 41.4033 28.7257 41.4033 28.7126V28.7126V27.2175C41.4033 27.1257 41.3902 27.0339 41.364 26.9421C41.3509 26.8896 41.3115 26.8372 41.2591 26.8109C41.2066 26.7847 41.141 26.7716 41.0754 26.7716C40.905 26.7716 40.7345 26.7978 40.564 26.8372V28.7126C40.564 28.7318 40.5569 28.744 40.548 28.7594L40.548 28.7594L40.548 28.7594L40.548 28.7595C40.5447 28.7651 40.5412 28.7712 40.5377 28.7782C40.5377 28.7913 40.5246 28.7913 40.5115 28.7913H40.4853H40.2623C40.2492 28.7913 40.2492 28.7913 40.2361 28.7782C40.2295 28.7782 40.2263 28.7749 40.223 28.7716C40.2197 28.7683 40.2164 28.765 40.2099 28.765C40.1505 28.7532 40.1449 28.7413 40.1346 28.7197L40.1312 28.7126ZM46.3868 26.0241V26.0503C46.3868 26.0569 46.3835 26.0601 46.3802 26.0634C46.377 26.0667 46.3737 26.07 46.3737 26.0765C46.3606 26.0896 46.3343 26.1028 46.3081 26.1028H46.0852H46.0589C46.0524 26.1028 46.0491 26.0995 46.0458 26.0962C46.0425 26.0929 46.0393 26.0896 46.0327 26.0896C46.0196 26.0765 46.0196 26.0765 46.0196 26.0634V26.0372V25.6831C46.0196 25.6639 46.0266 25.6517 46.0355 25.6363C46.0388 25.6306 46.0423 25.6245 46.0458 25.6175C46.0589 25.6044 46.0852 25.5913 46.1114 25.5913H46.3212H46.3606C46.3737 25.5913 46.3868 25.6044 46.3868 25.6044C46.3999 25.6175 46.3999 25.6175 46.3999 25.6306V25.6306V25.67L46.3868 26.0241ZM46.3868 28.7126C46.3868 28.7257 46.3868 28.7388 46.3737 28.7388C46.3737 28.7454 46.3704 28.7487 46.3671 28.7519C46.3638 28.7552 46.3606 28.7585 46.3606 28.765C46.3475 28.7782 46.3474 28.7782 46.3343 28.7782H46.3081H46.0983C46.0852 28.7782 46.072 28.7782 46.072 28.765C46.0655 28.765 46.0622 28.7618 46.0589 28.7585C46.0556 28.7552 46.0524 28.7519 46.0458 28.7519L46.0196 28.7257C46.0196 28.7207 46.0177 28.7157 46.016 28.7114C46.0134 28.7045 46.0115 28.6995 46.0196 28.6995V26.5487V26.5224C46.0196 26.5159 46.0229 26.5126 46.0261 26.5093C46.0294 26.506 46.0327 26.5028 46.0327 26.4962C46.0458 26.4831 46.0458 26.4831 46.0589 26.4831H46.0852H46.295C46.3142 26.4831 46.3264 26.4901 46.3418 26.499C46.3475 26.5023 46.3535 26.5058 46.3606 26.5093C46.3737 26.5224 46.3868 26.5487 46.3868 26.5749V28.7126ZM47.5277 28.3454C47.5409 28.3323 47.5409 28.3191 47.5409 28.306C47.5409 28.2667 47.5146 28.2536 47.4491 28.2667H47.1736C47.1343 28.2667 47.1081 28.2929 47.095 28.3454L46.8589 29.1454V29.1716C46.8589 29.211 46.8851 29.2241 46.9114 29.2241H47.1212H47.1474C47.1605 29.2241 47.1736 29.2241 47.1736 29.211C47.1928 29.1918 47.198 29.1796 47.2045 29.1641C47.2069 29.1585 47.2095 29.1524 47.213 29.1454L47.5277 28.3454ZM49.6918 28.7126C49.6918 28.7388 49.6918 28.7519 49.6787 28.7781C49.6712 28.7857 49.668 28.7889 49.6641 28.7902C49.6613 28.7912 49.6581 28.7912 49.6525 28.7912H49.6263H49.4164H49.3902C49.3902 28.7912 49.3771 28.7781 49.364 28.7781C49.3508 28.765 49.3377 28.7388 49.3377 28.7126V25.6962C49.3377 25.6699 49.3508 25.6568 49.364 25.6437C49.3771 25.6306 49.3771 25.6306 49.3902 25.6306C49.4033 25.6306 49.4164 25.6175 49.4164 25.6175H49.6263H49.6525C49.659 25.6175 49.6623 25.6208 49.6656 25.624C49.6689 25.6273 49.6722 25.6306 49.6787 25.6306C49.6918 25.6437 49.6918 25.6699 49.6918 25.683V28.7126ZM51.9868 28.6863C51.9999 28.6732 51.9999 28.6601 51.9999 28.6339H51.9868V27.2044C51.9868 26.6666 51.7114 26.4044 51.1606 26.4044C51.0294 26.4044 50.8983 26.4306 50.7671 26.4568L50.7168 26.471C50.6382 26.4928 50.554 26.5163 50.4786 26.5486C50.4655 26.5486 50.4524 26.5617 50.4393 26.5748C50.4261 26.588 50.4261 26.6142 50.4261 26.6273V26.7978C50.418 26.8059 50.42 26.809 50.4226 26.8133C50.4242 26.8159 50.4261 26.819 50.4261 26.824C50.4312 26.829 50.4342 26.834 50.4369 26.8383C50.4412 26.8452 50.4443 26.8503 50.4524 26.8503C50.4655 26.8634 50.4786 26.8634 50.4917 26.8634C50.4983 26.8634 50.5048 26.8601 50.5114 26.8568C50.5179 26.8535 50.5245 26.8503 50.5311 26.8503L50.8458 26.7716C50.9507 26.7585 51.0557 26.7453 51.1737 26.7453C51.3048 26.7322 51.4229 26.7716 51.5278 26.8503C51.6065 26.9552 51.6458 27.0863 51.6327 27.2175V27.388H51.3179C51.1212 27.388 50.9245 27.4142 50.7278 27.4666C50.5966 27.506 50.4786 27.5847 50.3999 27.6896C50.3212 27.8076 50.295 27.9519 50.295 28.083V28.1224C50.2819 28.2142 50.295 28.3191 50.3343 28.4109C50.3737 28.5027 50.4261 28.5814 50.5048 28.647C50.6491 28.765 50.8852 28.8175 51.213 28.8175C51.3332 28.8175 51.4423 28.8065 51.5606 28.7945L51.5934 28.7912C51.7114 28.7781 51.8294 28.7519 51.9343 28.7257C51.9606 28.7125 51.9737 28.6994 51.9868 28.6863ZM51.4229 26.1683C51.4491 26.1683 51.4622 26.1552 51.4622 26.1421C51.4622 26.1421 51.4622 26.1289 51.4753 26.1158L51.4622 26.1027L51.0557 25.5781C51.0491 25.5716 51.0393 25.565 51.0294 25.5585L51.0294 25.5584C51.0196 25.5519 51.0097 25.5453 51.0032 25.5388C50.9901 25.5388 50.9802 25.5355 50.9704 25.5322C50.9606 25.5289 50.9507 25.5257 50.9376 25.5257H50.6622C50.6229 25.5257 50.6098 25.5257 50.6098 25.5519C50.6098 25.565 50.6098 25.565 50.6229 25.5781L50.6229 25.5781L51.095 26.1158L51.1343 26.1552C51.1343 26.1552 51.1475 26.1683 51.1606 26.1683H51.1999H51.4229ZM51.6327 27.6765V28.5027L51.5409 28.5421C51.5226 28.5421 51.5016 28.5449 51.479 28.5479C51.4529 28.5514 51.4247 28.5552 51.3966 28.5552H51.2261C51.1081 28.5552 50.9901 28.5421 50.8852 28.5158C50.879 28.5127 50.872 28.5096 50.8647 28.5064C50.8411 28.4958 50.8134 28.4834 50.7934 28.4634C50.7671 28.4503 50.7409 28.4109 50.7278 28.3847C50.6884 28.3191 50.6753 28.2273 50.6753 28.1486V28.1093C50.6753 28.0437 50.6753 27.9781 50.7016 27.9125C50.7278 27.8601 50.7671 27.8076 50.8065 27.7814C50.872 27.7421 50.9376 27.7158 51.0032 27.7027C51.1081 27.6765 51.213 27.6765 51.3179 27.6765H51.6327ZM52.6426 28.7126V26.6798C52.6426 26.6536 52.6426 26.6273 52.6557 26.6142C52.6623 26.6077 52.6721 26.6011 52.6819 26.5946C52.6918 26.588 52.7016 26.5814 52.7082 26.5749C52.8655 26.5355 53.0229 26.4962 53.1803 26.47C53.2983 26.4437 53.4295 26.4437 53.5475 26.4437C53.6393 26.4437 53.7311 26.4569 53.8229 26.4831C53.9016 26.5093 53.9803 26.5487 54.0327 26.6142C54.2557 26.5093 54.4918 26.4437 54.7278 26.4437C54.8459 26.4437 54.977 26.47 55.0819 26.5224C55.1868 26.5749 55.2786 26.6667 55.318 26.7716C55.3836 26.9159 55.4098 27.0732 55.4098 27.2306V28.7257C55.4098 28.7388 55.4098 28.7519 55.3967 28.7519C55.3967 28.7585 55.3934 28.7618 55.3901 28.765C55.3868 28.7683 55.3836 28.7716 55.3836 28.7782C55.376 28.7857 55.3728 28.7889 55.369 28.7903C55.3661 28.7913 55.3629 28.7913 55.3573 28.7913H55.3311H55.1344C55.1213 28.7913 55.1082 28.7913 55.1082 28.7782C55.1016 28.7782 55.0983 28.7749 55.095 28.7716C55.0918 28.7683 55.0885 28.765 55.0819 28.765C55.0744 28.7575 55.0712 28.7543 55.0698 28.7504C55.0688 28.7476 55.0688 28.7444 55.0688 28.7388V28.7126V27.2044C55.0819 27.0732 55.0426 26.9552 54.9639 26.8503C54.9245 26.8109 54.8852 26.7847 54.8327 26.7716C54.7803 26.7585 54.7278 26.7454 54.6754 26.7454C54.5049 26.7585 54.3344 26.7847 54.177 26.8634C54.2032 26.9683 54.2163 27.0864 54.2163 27.1913V28.6995C54.2163 28.7257 54.2163 28.7388 54.2032 28.7519L54.177 28.7782C54.1639 28.7782 54.1508 28.7913 54.1508 28.7913H53.9278H53.9016C53.895 28.7913 53.8918 28.788 53.8885 28.7847C53.8852 28.7814 53.8819 28.7782 53.8754 28.7782C53.8623 28.765 53.8491 28.7388 53.8491 28.7257V27.2175C53.8491 27.1257 53.836 27.0339 53.8098 26.9421C53.7967 26.8896 53.7573 26.8372 53.7049 26.8109C53.6524 26.7847 53.5868 26.7716 53.5213 26.7716C53.3508 26.7716 53.1672 26.7978 53.0098 26.8372V28.7126C53.0098 28.7388 53.0098 28.7519 52.9836 28.7782C52.9704 28.7913 52.9704 28.7913 52.9573 28.7913H52.9311H52.7082H52.6819C52.6754 28.7913 52.6721 28.788 52.6688 28.7847C52.6655 28.7814 52.6623 28.7782 52.6557 28.7782C52.6426 28.7519 52.6426 28.7388 52.6426 28.7126ZM57.2983 26.6798V28.7126C57.2983 28.7388 57.2983 28.7519 57.3508 28.7388C57.3639 28.7388 57.3639 28.7388 57.377 28.7519C57.3901 28.765 57.3901 28.765 57.4033 28.765H57.6262H57.6524C57.6656 28.765 57.6787 28.765 57.6787 28.7519C57.6787 28.7454 57.6819 28.7421 57.6852 28.7388C57.6885 28.7355 57.6918 28.7323 57.6918 28.7257V28.6995V26.8241C57.8492 26.7847 58.0328 26.7585 58.2033 26.7585C58.2688 26.7585 58.3344 26.7716 58.3869 26.7978C58.4393 26.8241 58.4787 26.8765 58.4918 26.929C58.518 27.0208 58.5311 27.1126 58.5311 27.2044V28.7126C58.5311 28.7257 58.5442 28.7519 58.5574 28.765C58.5639 28.765 58.5672 28.7683 58.5705 28.7716C58.5738 28.7749 58.577 28.7782 58.5836 28.7782C58.5836 28.7913 58.5967 28.7913 58.6098 28.7913H58.8328C58.8328 28.7994 58.8378 28.7975 58.8447 28.7948C58.849 28.7932 58.854 28.7913 58.859 28.7913C58.864 28.7863 58.869 28.7832 58.8733 28.7805C58.8802 28.7762 58.8852 28.7732 58.8852 28.765C58.8852 28.7585 58.8885 28.7552 58.8918 28.7519C58.8951 28.7487 58.8983 28.7454 58.8983 28.7388V28.7126V27.2044C58.8983 27.0995 58.8852 26.9814 58.859 26.8765C59.0164 26.7978 59.1869 26.7716 59.3574 26.7585C59.3967 26.7585 59.4492 26.7716 59.5016 26.7847C59.5541 26.7978 59.5934 26.8241 59.6328 26.8634C59.7115 26.9683 59.7508 27.0864 59.7377 27.2175V28.7257V28.7519C59.7377 28.765 59.7377 28.765 59.7508 28.7782C59.7574 28.7782 59.7606 28.7814 59.7639 28.7847C59.7672 28.788 59.7705 28.7913 59.777 28.7913H59.8033H60H60.0262C60.0318 28.7913 60.035 28.7913 60.0378 28.7903C60.0417 28.7889 60.0449 28.7857 60.0524 28.7782C60.0524 28.7716 60.0557 28.7683 60.059 28.765C60.0623 28.7618 60.0656 28.7585 60.0656 28.7519C60.0787 28.7519 60.0787 28.7388 60.0787 28.7257V27.2306C60.0787 27.0732 60.0524 26.9159 59.9869 26.7716C59.9475 26.6667 59.8557 26.5749 59.7508 26.5224C59.6459 26.47 59.5147 26.4437 59.3967 26.4437C59.1606 26.4437 58.9246 26.5093 58.7016 26.6142C58.6492 26.5487 58.5705 26.5093 58.4918 26.4831C58.4 26.4569 58.3082 26.4437 58.2164 26.4437C58.0852 26.4437 57.9541 26.4437 57.836 26.47C57.6787 26.4962 57.5213 26.5355 57.3639 26.5749C57.3574 26.5814 57.3475 26.588 57.3377 26.5946C57.3279 26.6011 57.318 26.6077 57.3115 26.6142C57.2983 26.6273 57.2983 26.6536 57.2983 26.6798ZM63.5409 26.0503V26.0241H63.5278V25.67V25.6306C63.5278 25.6175 63.5278 25.6175 63.5147 25.6044L63.5147 25.6044C63.5147 25.6044 63.5015 25.5913 63.4884 25.5913H63.4491H63.2393C63.213 25.5913 63.1868 25.6044 63.1737 25.6175C63.1737 25.6175 63.1606 25.6306 63.1606 25.6437V25.6831V26.0241C63.1606 26.0306 63.1638 26.0372 63.1671 26.0437C63.1704 26.0503 63.1737 26.0569 63.1737 26.0634L63.1999 26.0896C63.2065 26.0896 63.2097 26.0929 63.213 26.0962C63.2163 26.0995 63.2196 26.1028 63.2261 26.1028H63.2524H63.4622C63.4884 26.1028 63.5147 26.0896 63.5278 26.0765C63.5278 26.07 63.5311 26.0667 63.5343 26.0634C63.5376 26.0601 63.5409 26.0569 63.5409 26.0503ZM63.5278 28.7388V28.7126H63.554V26.5618C63.554 26.5355 63.5409 26.5093 63.5278 26.4962C63.5208 26.4927 63.5147 26.4892 63.509 26.4859C63.4936 26.477 63.4814 26.47 63.4622 26.47H63.2655C63.2524 26.47 63.2261 26.4831 63.213 26.4962C63.213 26.5028 63.2097 26.506 63.2065 26.5093C63.2032 26.5126 63.1999 26.5159 63.1999 26.5224C63.1868 26.5224 63.1868 26.5355 63.1868 26.5487V28.6995C63.1787 28.6995 63.1806 28.7045 63.1832 28.7114C63.1849 28.7157 63.1868 28.7207 63.1868 28.7257C63.1868 28.7388 63.1868 28.7388 63.1999 28.7519C63.2065 28.7519 63.2097 28.7552 63.213 28.7585C63.2163 28.7618 63.2196 28.765 63.2261 28.765C63.2261 28.7782 63.2393 28.7782 63.2524 28.7782H63.4491H63.4884C63.5015 28.7782 63.5015 28.7782 63.5147 28.765C63.5147 28.7585 63.5179 28.7552 63.5212 28.7519C63.5245 28.7487 63.5278 28.7454 63.5278 28.7388Z" fill="black"/>
<path fill-rule="evenodd" clip-rule="evenodd" d="M55.9345 15.6634H60.5247C62.6624 15.6634 63.5411 16.3847 63.5542 18.129V20.8569C63.5542 22.6011 62.6755 23.3224 60.5378 23.3224H57.3247C55.1214 23.3224 54.2296 22.6273 54.2296 20.9093V11.047C54.2296 10.5093 54.5444 10.2077 55.0821 10.2077C55.6067 10.2077 55.9345 10.5224 55.9345 11.047V15.6634ZM57.0755 21.7224H60.9968C61.8493 21.7224 61.8493 21.565 61.8362 20.8306V18.1683C61.8362 17.5257 61.8362 17.2503 60.7476 17.2503H55.9083V20.9093C55.9083 21.4732 55.9083 21.7224 57.0755 21.7224ZM65.4164 13.4863C64.918 13.4863 64.6426 13.7617 64.6426 14.2732C64.6426 14.5617 64.7475 15.0601 65.4164 15.0601C66.1115 15.0601 66.2164 14.5749 66.2164 14.2732C66.2164 13.9847 66.1115 13.4863 65.4164 13.4863ZM50.2559 15.6634H46.8461C44.7084 15.6634 43.8821 16.3585 43.8821 18.129V20.8831C43.8821 22.6273 44.7083 23.3093 46.8067 23.3093H50.2559C52.3149 23.3093 53.1149 22.6273 53.1149 20.8831V18.129C53.1149 16.3847 52.2887 15.6634 50.2559 15.6634ZM45.6133 18.129C45.6133 17.4995 45.6133 17.2503 46.6624 17.2503H50.4526C51.3575 17.2503 51.3575 17.4339 51.3575 18.0241V20.8962C51.3575 21.565 51.3575 21.7224 50.4526 21.7224H46.6624C45.6133 21.7224 45.6133 21.5126 45.6133 20.8962V18.129ZM65.3903 15.4273C64.9051 15.4273 64.6166 15.7552 64.6166 16.306V22.4175C64.6166 22.9814 64.9051 23.3224 65.4166 23.3224C65.9149 23.3224 66.2297 22.9814 66.2297 22.4175V16.3192C66.2297 15.7552 65.9281 15.4273 65.3903 15.4273ZM67.3312 11.0601C67.3312 10.5224 67.6329 10.2077 68.1443 10.2077C68.6689 10.2077 68.9706 10.5224 68.9706 11.0601V22.47C68.9706 23.0077 68.682 23.3224 68.1575 23.3224C67.6329 23.3224 67.3312 23.0077 67.3312 22.47V11.0601ZM76.8133 15.6634H73.0887C70.9248 15.6634 70.0461 16.3716 70.0461 18.1027V20.8568C70.0461 22.4962 71.2657 23.3224 73.6526 23.3224H74.6493C75.1346 23.3224 75.4231 23.0077 75.4231 22.5093C75.4231 22.0109 75.1346 21.7224 74.6493 21.7224H73.3379C71.7772 21.7224 71.7772 21.1978 71.7772 21.0142V20.3847H78.5444C78.8461 20.3847 79.3575 20.2798 79.3575 19.5454V17.8404C79.3575 16.529 78.9248 15.6634 76.8133 15.6634ZM71.7772 18.0241C71.7772 17.4601 71.7772 17.2503 72.8264 17.2503H77.0625C77.4428 17.2503 77.5608 17.3027 77.587 17.3421C77.6526 17.4077 77.6526 17.6044 77.6526 17.8404V18.7585H71.7772V18.0241ZM38.5575 15.5978H39.8296C41.9411 15.5978 42.7673 16.2929 42.7805 18.0634V22.47C42.7805 22.9814 42.4788 23.1782 42.2952 23.2437C42.1641 23.2831 42.0329 23.3093 41.9018 23.3093H41.8755C41.7575 23.3093 41.6395 23.2831 41.5214 23.2437C41.3378 23.1782 41.0493 22.9946 41.0493 22.4831V18.0634C41.0493 17.447 41.0493 17.1847 40.0001 17.1847H38.4001C37.3509 17.1847 37.3509 17.4601 37.3509 17.9978V18.0634V22.4962C37.3509 22.6929 37.2985 22.8765 37.1805 23.0339C37.1018 23.1257 36.9969 23.2044 36.8788 23.2569C36.7608 23.2962 36.6296 23.3224 36.4985 23.3224H36.4591C36.328 23.3224 36.1969 23.2962 36.0788 23.2569C35.9608 23.2044 35.8559 23.1257 35.7772 23.0208C35.6723 22.8634 35.6067 22.6798 35.6198 22.4831V18.0634V17.9978L35.6196 17.9875C35.6066 17.4566 35.6 17.1847 34.5706 17.1847H32.9444C31.8952 17.1847 31.8952 17.447 31.8952 18.0634V22.4831C31.8952 22.9814 31.5936 23.1782 31.4231 23.2437C31.1739 23.3355 30.8985 23.3355 30.6493 23.2437C30.4264 23.1651 30.1641 22.9683 30.1641 22.4831V18.0634C30.1641 16.2929 30.9903 15.5978 33.1149 15.5978H34.387C35.3313 15.5978 36.0001 15.729 36.4723 16.0306C36.9444 15.7421 37.6132 15.5978 38.5575 15.5978Z" fill="black"/>
<path d="M25.6656 17.0667C26.059 17.4601 26.3738 17.9191 26.5836 18.4306C26.7935 18.9421 26.8984 19.4929 26.8984 20.0437C26.8984 20.5945 26.7935 21.1454 26.5836 21.6568C26.3738 22.1683 26.059 22.6273 25.6656 23.0208L16.7607 31.9257C15.9738 32.7126 14.8984 33.1585 13.7836 33.1585C12.6689 33.1585 11.5935 32.7126 10.8066 31.9257L1.88855 23.0208C1.49511 22.6273 1.19347 22.1683 0.970516 21.6568C0.76068 21.1454 0.655762 20.5945 0.655762 20.0437C0.655762 19.4929 0.76068 18.9421 0.970516 18.4306C1.18035 17.9191 1.49511 17.4601 1.88855 17.0667L10.8066 8.14863C11.5935 7.36175 12.6689 6.91585 13.7836 6.91585C14.8984 6.91585 15.9738 7.36175 16.7607 8.14863L25.6656 17.0667Z" fill="#FFC425"/>
<path d="M16.7606 15.1519L15.2655 16.647C15.1344 16.7781 15.0163 16.9486 14.9508 17.1322C14.8721 17.3158 14.8327 17.4995 14.8327 17.6962C14.8327 18.0896 14.9901 18.4699 15.2655 18.7454C15.5409 19.0208 15.9212 19.1781 16.3147 19.1781C16.7081 19.1781 17.0885 19.0208 17.3639 18.7454L18.295 17.8142C18.295 17.8142 18.636 18.1421 19.436 18.9421L20.3672 19.8732L13.9803 26.2601C13.6917 26.5486 13.3376 26.5749 13.0622 26.2995L7.63272 20.8831C7.58027 20.8306 7.52781 20.765 7.50158 20.6863C7.47535 20.6077 7.46223 20.5421 7.46223 20.4634C7.46223 20.3847 7.47535 20.306 7.51469 20.2404C7.54092 20.1749 7.59338 20.1093 7.64584 20.0568L15.1344 12.5683C15.2786 12.4372 15.3967 12.2667 15.4753 12.0831C15.554 11.8995 15.5934 11.7027 15.5934 11.506C15.5934 11.3093 15.554 11.1126 15.4885 10.929C15.4098 10.7454 15.3049 10.5749 15.1606 10.4437C15.0163 10.2995 14.859 10.1945 14.6753 10.1158C14.4917 10.0372 14.295 10.0109 14.0983 10.0109C13.9016 10.0109 13.7049 10.0503 13.5212 10.129C13.3376 10.2077 13.1803 10.3257 13.036 10.4699L4.51141 18.9814C4.11797 19.388 3.89502 19.9388 3.89502 20.5027C3.89502 21.0667 4.13108 21.6175 4.53764 22.0109L11.9475 29.4077C12.3409 29.8142 12.8917 30.0372 13.4557 30.0503C14.0196 30.0503 14.5704 29.8404 14.977 29.4339L23.0294 21.3814C23.4229 20.9749 23.6458 20.4372 23.6458 19.8601C23.6458 19.2962 23.4098 18.7454 23.0032 18.3519L21.8622 17.2109L21.5081 16.8568L19.777 15.1257C19.3704 14.7322 18.8196 14.5093 18.2557 14.5093C17.6917 14.5224 17.154 14.7454 16.7606 15.1519Z" fill="black"/>
</svg>
