<svg width="128" height="128" viewBox="0 0 128 128" fill="none" xmlns="http://www.w3.org/2000/svg">
<path d="M120.44 34.72C115.11 28.18 96.4101 16.23 64.0001 16.23C31.5901 16.23 12.8901 28.18 7.56012 34.72C2.23012 41.26 1.97012 48.87 2.23012 54.28C2.24012 54.58 2.29012 55.03 2.38012 55.55C3.01012 59.16 4.10012 61.75 18.9001 61.75C34.6901 61.75 36.4401 57.86 36.5401 55.01C36.7001 50.37 37.2501 44.22 39.3401 42.92C41.8101 41.4 43.9201 35.99 64.0101 35.68C84.1001 36 86.2101 41.4 88.6801 42.92C90.7801 44.22 91.3201 50.36 91.4801 55.01C91.5801 57.86 93.3301 61.75 109.12 61.75C123.91 61.75 125.01 59.15 125.64 55.55C125.73 55.03 125.77 54.58 125.79 54.28C126.03 48.87 125.78 41.27 120.44 34.72Z" fill="#C62828"/>
<path d="M109.11 65.76C99.6599 65.76 88.7699 64.66 88.4799 56.12C88.4652 55.7264 88.5284 55.3339 88.6658 54.9649C88.8033 54.5958 89.0123 54.2575 89.2808 53.9695C89.5493 53.6815 89.8721 53.4493 90.2306 53.2863C90.5892 53.1234 90.9763 53.0329 91.3699 53.02C92.1634 52.9951 92.9346 53.2849 93.5153 53.8263C94.096 54.3677 94.4392 55.1167 94.4699 55.91C94.5099 57.07 96.0199 59.76 109.11 59.76C124.64 59.76 125.84 53.68 125.84 53.68C126.83 56.12 129.12 64.89 109.11 65.76ZM18.8799 64.76C28.3299 64.76 39.2199 63.66 39.5099 55.12C39.5246 54.7264 39.4614 54.3339 39.324 53.9649C39.1865 53.5958 38.9776 53.2575 38.709 52.9695C38.4405 52.6815 38.1177 52.4493 37.7592 52.2863C37.4007 52.1234 37.0135 52.0329 36.6199 52.02C35.8264 51.9951 35.0552 52.2849 34.4745 52.8263C33.8938 53.3677 33.5507 54.1167 33.5199 54.91C33.4799 56.07 31.9699 58.76 18.8799 58.76C3.34992 58.76 2.14992 52.68 2.14992 52.68C1.18992 54.9 -1.13008 63.89 18.8799 64.76ZM98.0399 30.12C92.7799 27.94 82.2499 24.98 63.9999 24.98C45.7499 24.98 35.2299 27.94 29.9599 30.12C28.2299 30.83 28.0699 33.19 29.6699 34.16C32.6599 35.98 36.3799 39.45 37.3399 45.78C37.3699 45.99 37.4299 46.18 37.4899 46.37C37.9099 44.73 38.4899 43.45 39.3199 42.94C41.7899 41.42 43.8999 36.01 63.9899 35.7C84.0799 36.02 86.1899 41.42 88.6599 42.94C89.4899 43.45 90.0699 44.73 90.4899 46.37C90.5499 46.18 90.6099 45.99 90.6399 45.78C91.5999 39.46 95.3199 35.98 98.3099 34.16C99.9199 33.19 99.7699 30.83 98.0399 30.12Z" fill="#912221"/>
<path d="M119.54 46.36C117.49 41.3499 115.74 39.2599 109.92 36.9599C107.82 36.1299 106.56 34.59 107.08 33.31C107.6 32.03 108.96 31.58 111.13 32.15C117.22 33.73 121.86 39.4399 121.87 46.1399C121.86 49.2599 120.34 48.31 119.54 46.36ZM10.4102 36.3199C10.7902 37.5899 13.2702 36.53 16.2802 36.29C20.4502 35.96 21.6802 37.26 23.5302 39.2C25.0802 40.83 27.3002 40.8599 28.1202 39.7499C28.9502 38.6399 28.4602 37.4099 27.0302 35.6799C25.9702 34.3899 21.4002 31.3199 14.6502 33.1399C13.1202 33.5699 10.0102 34.9799 10.4102 36.3199Z" fill="#F44336"/>
<path d="M18.8901 95.6101V116.9C18.8901 120.82 22.2701 124 26.4301 124H101.57C105.73 124 109.11 120.82 109.11 116.9V95.1201L18.8901 95.6101Z" fill="#C62828"/>
<path d="M108.89 92.0299C108.89 92.0299 101.08 55.7099 99.8202 49.2899C98.5602 42.8699 96.3702 40.9799 92.6702 40.9199C90.1802 40.8799 87.5502 39.1699 87.1102 36.0999C86.6702 33.0699 86.5702 31.2899 86.3902 29.9499C86.2102 28.6099 86.2602 26.6499 84.3402 26.6499H80.5302C78.8302 26.6499 78.6902 26.9799 78.4102 29.3799C78.1302 31.7899 77.7502 36.4299 76.8102 38.7499C76.0002 40.7399 73.8602 40.9199 72.6402 40.9199H55.3502C54.1402 40.9199 51.9902 40.7399 51.1802 38.7499C50.2402 36.4299 49.8502 31.7799 49.5802 29.3799C49.3002 26.9699 49.1602 26.6499 47.4602 26.6499H43.6502C41.7402 26.6499 41.7902 28.6099 41.6002 29.9499C41.4202 31.2899 41.3202 33.0699 40.8802 36.0999C40.4302 39.1699 37.8102 40.8799 35.3202 40.9199C31.6202 40.9799 29.4302 42.8699 28.1702 49.2899C26.9102 55.7099 19.1002 92.0299 19.1002 92.0299C18.0502 99.0999 20.5002 102.06 33.1802 102.06H94.8002C107.5 102.06 109.95 99.0999 108.89 92.0299Z" fill="#FF4638"/>
<path d="M88.4998 58.8201L84.7798 52.7501L76.5398 51.3301L73.5398 53.1201C72.8398 53.5401 71.9698 53.5101 71.2898 53.0701L69.7398 52.0501L58.3298 52.1401L57.1398 53.0001C56.4498 53.5001 55.5198 53.5301 54.7998 53.0901L52.0598 51.4101L39.4998 58.8201L35.0298 84.3201L35.2398 88.9301C35.2798 89.8701 36.0598 90.6101 36.9998 90.6101H91.0098C91.9498 90.6101 92.7298 89.8701 92.7698 88.9301L92.9798 84.3201L88.4998 58.8201Z" fill="#4E342E"/>
<path d="M78.6401 72.4598H88.9501C89.9201 72.4598 90.6601 71.5798 90.4901 70.6298L89.5401 65.1798C89.4101 64.4298 88.7601 63.8898 88.0001 63.8898H78.0001C77.0601 63.8898 76.3401 64.7098 76.4501 65.6398L77.1001 71.0898C77.1801 71.8698 77.8501 72.4598 78.6401 72.4598ZM59.3901 60.3998H68.7401C69.6301 60.3998 70.3501 59.6498 70.3001 58.7598L69.9901 52.8098C69.9696 52.4101 69.7962 52.0336 69.5059 51.7581C69.2155 51.4826 68.8304 51.3293 68.4301 51.3298H59.7001C58.8701 51.3298 58.1801 51.9798 58.1401 52.8098L57.8301 58.7598C57.7801 59.6498 58.5001 60.3998 59.3901 60.3998ZM69.7501 76.9698H58.3801C57.5501 76.9698 56.8601 77.6198 56.8201 78.4498L56.5401 83.8998C56.4901 84.7898 57.2101 85.5398 58.1001 85.5398H70.0301C70.9201 85.5398 71.6401 84.7898 71.5901 83.8998L71.3101 78.4498C71.2896 78.0501 71.1162 77.6736 70.8259 77.3981C70.5355 77.1226 70.1504 76.9693 69.7501 76.9698ZM58.7901 72.4598H69.3301C70.2201 72.4598 70.9401 71.7098 70.8901 70.8198L70.6101 65.3698C70.5896 64.9701 70.4162 64.5936 70.1259 64.3181C69.8355 64.0426 69.4504 63.8893 69.0501 63.8898H59.0701C58.2401 63.8898 57.5501 64.5398 57.5101 65.3698L57.2301 70.8198C57.1901 71.7098 57.9001 72.4598 58.7901 72.4598ZM48.5101 76.9698H37.6301C36.8701 76.9698 36.2201 77.5198 36.0901 78.2598L35.1401 83.7098C34.9701 84.6698 35.7101 85.5398 36.6801 85.5398H47.8701C48.6601 85.5398 49.3301 84.9498 49.4201 84.1598L50.0701 78.7098C50.1701 77.7898 49.4501 76.9698 48.5101 76.9698ZM39.0501 72.4598H49.4801C50.2701 72.4598 50.9401 71.8698 51.0301 71.0798L51.6801 65.6298C51.7901 64.6998 51.0701 63.8798 50.1301 63.8798H40.0101C39.2501 63.8798 38.6001 64.4298 38.4701 65.1698L37.5201 70.6198C37.3401 71.5798 38.0801 72.4598 39.0501 72.4598ZM77.2601 60.3998H86.9201C87.8901 60.3998 88.6301 59.5198 88.4601 58.5698L87.4201 52.6198C87.2901 51.8698 86.6401 51.3298 85.8801 51.3298H76.5501C75.6101 51.3298 74.8901 52.1498 75.0001 53.0798L75.7101 59.0298C75.8001 59.8098 76.4701 60.3998 77.2601 60.3998ZM52.4201 59.0198L53.1301 53.0698C53.2401 52.1398 52.5201 51.3198 51.5801 51.3198H42.1201C41.3601 51.3198 40.7101 51.8698 40.5801 52.6098L39.5401 58.5598C39.3701 59.5198 40.1101 60.3898 41.0801 60.3898H50.8701C51.6601 60.3998 52.3301 59.8098 52.4201 59.0198ZM78.0601 78.7198L78.7101 84.1698C78.8001 84.9598 79.4701 85.5498 80.2601 85.5498H91.3201C92.2901 85.5498 93.0301 84.6698 92.8601 83.7198L91.9101 78.2698C91.7801 77.5198 91.1301 76.9798 90.3701 76.9798H79.6101C78.6801 76.9698 77.9501 77.7898 78.0601 78.7198Z" fill="#F5F5F5"/>
</svg>
